<?xml version="1.0" encoding="UTF-8"?> <svg xmlns="http://www.w3.org/2000/svg" id="uuid-3971bae9-5235-42d7-b661-d56354a24a90" viewBox="0 0 100 100"><defs><style>.uuid-b74e3433-85c6-4671-92aa-c5096dc72fe7{fill:#F53855;}</style></defs><path class="uuid-b74e3433-85c6-4671-92aa-c5096dc72fe7" d="M31.53,19.38l13.36,12.1c1.95,1.77,4.47,2.74,7.1,2.74h41.92v59.54H6.09V19.58l25.44-.2m.62-6.1s-.02,0-.03,0l-27.66,.21C1.99,13.52,0,15.52,0,17.98V95.37C0,97.85,2.01,99.86,4.48,99.86H95.52c2.48,0,4.48-2.01,4.48-4.48V32.61c0-2.48-2.01-4.48-4.48-4.48H51.99c-1.11,0-2.18-.41-3.01-1.16l-13.82-12.52c-.82-.75-1.9-1.16-3.01-1.16h0Z"></path><path class="uuid-b74e3433-85c6-4671-92aa-c5096dc72fe7" d="M60.41,59.94v-4.23c0-5.33-3.84-10.1-9.14-10.72-6.33-.75-11.69,4.16-11.69,10.34v4.62h-3.35v24.22h27.52v-24.22h-3.35Zm-16.85-4.62c0-3.99,3.64-7.14,7.78-6.31,3.03,.61,5.1,3.46,5.1,6.55v4.37h-12.88v-4.62Zm2.97,22.9l1.07-6.46c-.83-.81-1.24-2.06-.91-3.35,.3-1.17,1.27-2.13,2.44-2.42,2.28-.57,4.32,1.14,4.32,3.32,0,.96-.39,1.84-1.03,2.46l1.07,6.46h-6.96Z"></path></svg> 