<?xml version="1.0" encoding="UTF-8"?> <svg xmlns="http://www.w3.org/2000/svg" id="a" viewBox="0 0 100 100"><path d="M.65,24.44c-.06-1.1-.15-2.21-.17-3.31-.04-2.8,1.09-4.1,3.91-4.22,15.26-.67,28.83-6.22,41.46-14.44,4.12-2.69,4.16-2.72,8.38,.08,11.37,7.56,23.76,12.42,37.31,14.2,1.38,.18,2.79,.06,4.18,.17,2.69,.21,3.82,1.45,3.79,4.13-.2,21.15-6.26,40.31-19.59,56.89-7.49,9.32-16.67,16.57-27.71,21.25-1.35,.57-3.4,.47-4.77-.14-14.52-6.39-25.62-16.76-33.83-30.22C5.32,55.24,1.09,40.37,.65,24.44Zm6.59-.17c0,.53-.13,1.42,.02,2.27,1.08,6.13,2.24,12.25,3.32,18.38,.27,1.54,1.03,1.96,2.55,1.95,10.36-.06,20.71-.09,31.07,.01,2.01,.02,2.44-.66,2.42-2.54-.08-10.54-.04-21.07-.05-31.61,0-.69-.09-1.38-.12-1.85-6.44,2.8-12.6,5.94-19.08,8.15-6.47,2.21-13.25,3.49-20.12,5.23ZM53.64,10.51c-.1,.49-.21,.76-.21,1.04-.01,11.2,.01,22.4-.04,33.6,0,1.65,.86,1.72,2.09,1.71,10.5-.02,21.01-.03,31.51,.02,1.42,0,2.14-.39,2.4-1.85,.97-5.41,2.17-10.77,2.97-16.2,.71-4.82,.52-4.84-4.16-5.68-11.57-2.07-22.53-5.87-32.73-11.77-.54-.31-1.14-.54-1.83-.86Zm-7.19,80.54c.07-1.1,.13-1.68,.13-2.25,0-10.98-.04-21.96,.05-32.93,.02-1.98-.6-2.5-2.51-2.48-9.33,.09-18.65,.03-27.98,.05-.75,0-1.5,.15-2.57,.26,6.94,16.19,17.23,28.82,32.88,37.36Zm39.97-37.35c-.92-.14-1.34-.26-1.77-.26-9.77-.01-19.53,.02-29.3-.04-1.6,0-1.96,.65-1.96,2.12,.04,11.12,.02,22.25,.03,33.37,0,.57,.09,1.13,.17,2.13,15.6-8.48,25.9-21.13,32.83-37.32Z" style="fill:#F53855;"></path></svg> 