<?xml version="1.0" encoding="UTF-8"?> <svg xmlns="http://www.w3.org/2000/svg" id="a" viewBox="0 0 100 100"><path d="M48.92,100.48c-14.76,0-29.51,0-44.27,0-4.47,0-5.79-2.13-3.67-6.06C15.74,66.98,30.54,39.57,45.24,12.11c1.03-1.93,2.51-1.54,4.04-1.63,1.53-.09,2.67,.14,3.53,1.76,8.71,16.34,17.51,32.63,26.29,48.94,5.95,11.06,11.92,22.11,17.84,33.2,.49,.92,.8,2.03,.87,3.07,.14,1.94-.94,2.99-2.88,3.03-2.11,.04-4.22,.02-6.32,.02-13.23,0-26.46,0-39.69,0Zm40.21-6.58c-13.44-25-26.64-49.58-40.14-74.69-13.51,25.15-26.74,49.76-40.13,74.69H89.13Z" style="fill:#F53855;"></path><path d="M45.62,54.69c0-2.68-.04-5.37,.02-8.05,.02-1-.05-2.26,.49-2.94,.72-.91,2-1.86,3.05-1.87,.93,0,2.02,1.12,2.74,2,.44,.53,.43,1.52,.44,2.31,.03,5.8,.06,11.6,0,17.4-.02,1.77-.34,3.57-2.46,4.12-2.35,.62-4.08-.79-4.21-3.62-.14-3.11-.03-6.23-.03-9.35,0,0-.02,0-.03,0Z" style="fill:#F53855;"></path><path d="M45.62,79.78c.03-3.68,1.2-5.38,3.39-5.37,2.14,.01,3.36,1.77,3.36,4.94,0,.72-.12,1.44-.25,2.15-.31,1.74-1.38,2.7-3.14,2.7-1.77,0-2.8-1.02-3.14-2.73-.14-.71-.19-1.43-.23-1.69Z" style="fill:#F53855;"></path></svg> 