<?xml version="1.0" encoding="UTF-8"?> <svg xmlns="http://www.w3.org/2000/svg" id="uuid-37974fca-5298-474d-bd35-fdac5ba123b3" viewBox="0 0 100 100"><defs><style>.uuid-1bfdbd29-7ea4-4725-a7fa-c769dda9a23c{fill:#F53855;}</style></defs><path class="uuid-1bfdbd29-7ea4-4725-a7fa-c769dda9a23c" d="M93.83,50.79c0,10.84-.07,21.67,.04,32.51,.04,4.08-1.57,7.05-4.91,9.26-5.4,3.57-11.51,5.17-17.75,6.15-15.84,2.5-31.66,2.46-47.37-1.11-4.55-1.04-8.92-2.59-12.81-5.28-3.1-2.14-4.57-5-4.56-8.81,.05-21.95,.06-43.9,0-65.85-.01-3.91,1.55-6.78,4.73-8.93,5.43-3.67,11.61-5.28,17.92-6.27C44.96-.06,60.78-.02,76.49,3.56c4.55,1.04,8.92,2.59,12.81,5.28,3.1,2.14,4.58,5,4.56,8.81-.08,11.04-.03,22.09-.03,33.14ZM12.63,59.62c-.02,.4-.09,1-.09,1.61,0,7.5,.04,14.99-.04,22.49-.02,1.74,.56,3.06,2.03,3.78,2.66,1.3,5.32,2.77,8.15,3.54,16.85,4.55,33.86,4.63,50.86,1.04,3.95-.83,7.73-2.54,11.5-4.07,1.99-.81,2.87-2.44,2.81-4.82-.16-7.21-.05-14.44-.06-21.65,0-.72-.07-1.44-.09-1.87-25.14,8.65-50.03,8.7-75.07-.03ZM87.79,25.2c-25.23,8.76-50.12,8.8-75.26-.02,0,.51,0,1.18,0,1.85,0,7.36,.07,14.72-.05,22.07-.03,2.02,.71,3.44,2.37,4.23,2.8,1.33,5.63,2.76,8.61,3.53,16.32,4.26,32.79,4.37,49.25,.99,4.15-.85,8.15-2.59,12.13-4.14,2.18-.85,3.08-2.6,3-5.13-.19-5.89-.06-11.8-.06-17.7,0-1.94,0-3.87,0-5.68Zm-37.74,.75c5.26-.39,10.52-.67,15.76-1.22,2.95-.31,5.89-.94,8.78-1.64,4.12-.99,8.23-2.08,11.68-4.73,2.01-1.54,2.11-2.97,0-4.29-2.32-1.45-4.83-2.81-7.45-3.56-17.93-5.14-36.02-5.18-54.1-.9-3.7,.88-7.26,2.65-10.65,4.46-2.19,1.16-2.12,2.85-.04,4.23,1.94,1.29,4.07,2.42,6.27,3.17,9.62,3.32,19.61,4.25,29.75,4.47Z"></path></svg> 