<svg xmlns="http://www.w3.org/2000/svg" xmlns:xlink="http://www.w3.org/1999/xlink" viewBox="0 0 415.89 438.39"><defs><linearGradient id="linear-gradient" x1="66.65" y1="213.36" x2="359.11" y2="213.36" gradientUnits="userSpaceOnUse"><stop offset="0" stop-color="#6c48ab"></stop><stop offset="1" stop-color="#F53855"></stop></linearGradient></defs><g style="isolation:isolate"><g id="Layer_2" data-name="Layer 2"><g id="Layer_1-2" data-name="Layer 1"><path d="M97.59,48.84C53.25,78-5.86,138,.47,192.17c2.21,18.91,16.17,39.92,44.11,81.94A506.8,506.8,0,0,0,82.38,325c36.51,42.81,61.37,71.95,90.47,79.66C245.77,424,401.4,323.56,414.94,197.09c7.38-69-28.36-137.84-95.87-170.7C244.74-9.79,157,9.84,97.59,48.84Z" fill="#f4f7fa"></path><path d="M215.66,434.74,95.17,308.62A207.3,207.3,0,0,1,43.81,172V64.93a18,18,0,0,1,18-18h54.42a79.18,79.18,0,0,0,45-14l37.68-26a24.77,24.77,0,0,1,28.06-.06L265.3,33.12A79.16,79.16,0,0,0,310,47h54a18,18,0,0,1,18,18V174a207.29,207.29,0,0,1-49.16,134Z" fill="#fff" stroke="#ee6277" stroke-miterlimit="10" stroke-width="5"></path><path d="M359.11,69.81V174q0,7.73-.65,15.37A182,182,0,0,1,355,212.86a185.36,185.36,0,0,1-8.43,28h0A184.63,184.63,0,0,1,324.85,281q-4.34,6.08-9.18,11.83L264.4,348.34l-9.59,10.37-39.43,42.68L205,390.54l-10.36-10.85-10.37-10.86L173.92,358l-10.38-10.86-10.36-10.86-10.37-10.84-10.36-10.86-10.37-10.85-10-10.51-.31-.36q-5-5.7-9.38-11.75t-8.46-12.59q-4-6.58-7.51-13.47-3.55-7-6.49-14.38h0q-3-7.58-5.4-15.39Q72,217.1,70.34,208.72q-1.8-8.82-2.72-17.83h0a181.72,181.72,0,0,1-1-18.84V69.81h49.54A102.64,102.64,0,0,0,135.35,68q3.1-.6,6.17-1.38,3.25-.82,6.45-1.87a102.29,102.29,0,0,0,26.2-13l5.05-3.49,32.64-22.56a1.84,1.84,0,0,1,1.08-.34,1.87,1.87,0,0,1,1.09.34L221,30.42l12.71,8.71,12.71,8.71,6,4.12c2.27,1.55,4.59,3,7,4.36A99.5,99.5,0,0,0,274,63.25,100.14,100.14,0,0,0,291,68a102,102,0,0,0,19,1.78Z" fill="url(#linear-gradient)"></path><polygon points="280.85 101.97 217.49 165.33 208.99 173.84 171.76 136.61 180.26 128.1 208.99 156.83 272.35 93.47 280.85 101.97" fill="#fff"></polygon><path d="M122.3,203l-1.17,10.54a2.15,2.15,0,0,0,2.72,2.31l10.85-3a2.15,2.15,0,0,1,2.72,1.79l.82,6.3a2.15,2.15,0,0,1-2,2.43l-8.65.61A2.15,2.15,0,0,0,126,227.4l5.87,7.82a2.15,2.15,0,0,1-.71,3.19l-5.76,3.07a2.14,2.14,0,0,1-2.94-.94l-3.79-7.6a2.16,2.16,0,0,0-3.9.09l-3.23,7.33a2.16,2.16,0,0,1-2.94,1.06l-6-3a2.15,2.15,0,0,1-.76-3.21l5.81-7.81a2.15,2.15,0,0,0-1.56-3.43l-8.58-.66a2.16,2.16,0,0,1-2-2.48l1-6.23a2.15,2.15,0,0,1,2.72-1.74l10.54,3a2.15,2.15,0,0,0,2.73-2.31L111.37,203a2.15,2.15,0,0,1,2.14-2.39h6.65A2.15,2.15,0,0,1,122.3,203Z" fill="#fff"></path><circle cx="164.94" cy="221.57" r="10.38" fill="#fff"></circle><path d="M216.93,203l-1.18,10.54a2.15,2.15,0,0,0,2.72,2.31l10.86-3a2.14,2.14,0,0,1,2.71,1.79l.83,6.3a2.16,2.16,0,0,1-2,2.43l-8.65.61a2.15,2.15,0,0,0-1.57,3.44l5.87,7.82a2.15,2.15,0,0,1-.7,3.19l-5.76,3.07a2.15,2.15,0,0,1-2.95-.94l-3.79-7.6a2.16,2.16,0,0,0-3.9.09l-3.22,7.33a2.17,2.17,0,0,1-3,1.06l-6-3a2.17,2.17,0,0,1-.76-3.21l5.81-7.81a2.15,2.15,0,0,0-1.56-3.43l-8.57-.66a2.16,2.16,0,0,1-2-2.48l1-6.23a2.14,2.14,0,0,1,2.71-1.74l10.55,3a2.15,2.15,0,0,0,2.73-2.31L206,203a2.14,2.14,0,0,1,2.14-2.39h6.65A2.15,2.15,0,0,1,216.93,203Z" fill="#fff"></path><circle cx="259.56" cy="221.57" r="10.38" fill="#fff"></circle><path d="M314.25,203l-1.17,10.54a2.15,2.15,0,0,0,2.72,2.31l10.86-3a2.14,2.14,0,0,1,2.71,1.79l.82,6.3a2.15,2.15,0,0,1-2,2.43l-8.65.61A2.15,2.15,0,0,0,318,227.4l5.87,7.82a2.14,2.14,0,0,1-.71,3.19l-5.76,3.07a2.14,2.14,0,0,1-2.94-.94l-3.79-7.6a2.16,2.16,0,0,0-3.9.09l-3.23,7.33a2.16,2.16,0,0,1-2.94,1.06l-6-3a2.16,2.16,0,0,1-.76-3.21l5.81-7.81a2.15,2.15,0,0,0-1.56-3.43l-8.58-.66a2.16,2.16,0,0,1-2-2.48l1-6.23a2.15,2.15,0,0,1,2.72-1.74l10.54,3a2.15,2.15,0,0,0,2.73-2.31L303.32,203a2.15,2.15,0,0,1,2.14-2.39h6.65A2.14,2.14,0,0,1,314.25,203Z" fill="#fff"></path><path d="M254.81,358.71l-39.43,42.68L205,390.54l-10.36-10.85-10.37-10.86L173.92,358l-10.38-10.86-10.36-10.86-10.37-10.84-10.36-10.86-10.37-10.85-10-10.51-.31-.36q-5-5.7-9.38-11.75t-8.46-12.59q-4-6.58-7.51-13.47-3.55-7-6.49-14.38h0q-3-7.58-5.4-15.39Q72,217.1,70.34,208.72q-1.8-8.82-2.72-17.83h0a181.72,181.72,0,0,1-1-18.84V69.81h49.54A102.64,102.64,0,0,0,135.35,68q3.1-.6,6.17-1.38a113.38,113.38,0,0,1,15.71,29.78c16.6,46.12-5.65,60.7,14.26,94.35,20.67,35,49.49,27.06,67.65,62.48,12.15,23.68,2.17,32.91,9.22,77.28A192.36,192.36,0,0,0,254.81,358.71Z" fill="#fff" opacity="0.16" style="mix-blend-mode:soft-light"></path></g></g></g></svg>