<?xml version="1.0" encoding="UTF-8"?> <svg xmlns="http://www.w3.org/2000/svg" id="a" viewBox="0 0 100 100"><path d="M67.97,17.11c-9.08,0-18.16,0-27.24,0-2.37,0-3.69-1.09-3.79-3.03-.1-1.77,.68-2.97,2.42-3.41,.77-.19,1.59-.27,2.38-.27,17.65-.01,35.29-.01,52.94,0,.58,0,1.18,0,1.75,.1,2.1,.4,3.11,1.68,2.89,3.7-.22,2.02-1.49,2.9-3.45,2.91-7.32,0-14.65,0-21.97,0-1.98,0-3.95,0-5.93,0Z" style="fill:#F53855;"></path><path d="M68.1,89.62c-9.01,0-18.01,0-27.02,0-2.77,0-4.08-.99-4.15-3.12-.08-2.21,1.32-3.57,4.02-3.58,18.09-.03,36.17-.03,54.26,0,1.66,0,3.28,.32,3.95,2.15,.93,2.52-.67,4.54-3.6,4.55-9.15,.02-18.31,0-27.46,0Z" style="fill:#F53855;"></path><path d="M26.84,50.15c-.06,7.6-5.78,13.18-13.45,13.1-7.09-.07-12.8-5.93-12.81-13.15-.02-7.33,5.93-13.33,13.19-13.3,7.33,.03,13.13,5.95,13.07,13.34Zm-19.52-.22c-.04,3.72,2.74,6.57,6.41,6.57,3.56,0,6.45-2.81,6.49-6.32,.04-3.56-2.96-6.66-6.45-6.68-3.4-.01-6.41,2.98-6.45,6.42Z" style="fill:#F53855;"></path><path d="M26.84,13.79c0,7.62-5.53,13.11-13.19,13.09-7.45-.02-13.02-5.6-13.05-13.07C.58,6.42,6.49,.52,13.84,.6c7.37,.08,12.99,5.79,13,13.2Zm-19.51,.07c.01,3.58,2.99,6.54,6.53,6.48,3.42-.05,6.35-3.03,6.36-6.48,.02-3.51-3.03-6.65-6.47-6.66-3.43-.01-6.44,3.11-6.43,6.65Z" style="fill:#F53855;"></path><path d="M26.84,86.39c-.06,7.71-5.62,13.09-13.49,13.01-7.23-.07-12.82-5.82-12.77-13.14,.05-7.41,6.01-13.29,13.33-13.14,7.39,.14,12.97,5.87,12.92,13.28Zm-6.62-.14c-.03-3.49-3.2-6.61-6.6-6.52-3.47,.1-6.34,3.19-6.29,6.78,.04,3.46,2.99,6.36,6.45,6.35,3.51,0,6.48-3.06,6.45-6.62Z" style="fill:#F53855;"></path><path d="M68.21,53.26c-9.07,0-18.14,0-27.21,0-2.8,0-4.06-.98-4.09-3.12-.03-2.21,1.37-3.39,4.15-3.4,18.07-.01,36.13-.02,54.2,0,2.85,0,4.27,1.34,4.07,3.68-.16,1.91-1.31,2.83-3.69,2.83-9.14,.02-18.29,0-27.43,0Z" style="fill:#F53855;"></path></svg> 