<?xml version="1.0" encoding="UTF-8"?> <svg xmlns="http://www.w3.org/2000/svg" xmlns:xlink="http://www.w3.org/1999/xlink" viewBox="0 0 751.29 804.28"><defs><clipPath id="clip-path"><circle cx="383.8" cy="410.55" r="318.83" fill="none"></circle></clipPath><linearGradient id="linear-gradient" x1="629.75" y1="699.69" x2="240.08" y2="243.01" gradientUnits="userSpaceOnUse"><stop offset="0" stop-color="#fac9d0"></stop><stop offset="1" stop-color="#fff"></stop></linearGradient><linearGradient id="linear-gradient-2" x1="64.02" y1="410.06" x2="703.27" y2="410.06" gradientUnits="userSpaceOnUse"><stop offset="0" stop-color="#fb8295"></stop><stop offset="1" stop-color="#d86072"></stop></linearGradient></defs><g style="isolation:isolate"><g id="Layer_2" data-name="Layer 2"><g id="Layer_1-2" data-name="Layer 1"><path d="M313.56,710.55C127.19,682.33-24.28,506.11,3.24,310.25c23.48-167,169.92-297,345.54-309.3Q367.86-.38,387.34.16a383.77,383.77,0,0,1,249.4,101.32c64.07,59,105.7,138,113.28,220.76C770.21,542.56,545.37,745.66,313.56,710.55Z" fill="#fde3e7"></path><g clip-path="url(#clip-path)"><path d="M697.86,410.55c0,66.43-14.66,122.83-49.18,174-.23.34-.23,5.93-.46,6.27L646.69,593c-.14.22-.65.42-.65.63h0c-56.69,83.06-153.82,136.87-262.78,136.87a188.39,188.39,0,0,1-26.18-1.62h0s-.05.53-.08.53c-4.3-.35-8.56-.52-12.8-1-1.51-.18-3-.24-4.52-.45-1.33-.18-2.66-.3-4-.5-1.15-.17-2.3-.32-3.43-.5-.26-.05-.52-.08-.78-.11-2.79-.46-5.58-.94-8.36-1.48h0C174.94,697.08,63,566.85,63,410.46a320.29,320.29,0,0,1,14.11-95c1.45-4.7,11.16,2.15,12.37-2.46l-.58-7.59c3.62-7.67,5-16.06,8.28-23.46,1.34-3,2.56-5.49,4-8.4,7.81-16,17.65-28.82,27.9-43.19.93-1.3,1-4.07,2-5.37,3.8-5.16,13.17-5.81,17.28-10.73,6.15-7.39,8.74-16.78,15.52-23.58,17.66-17.72,30.06-39.93,51.45-53.15q9.91-6.13,20.32-11.56a316.46,316.46,0,0,1,52.74-21.75A321.21,321.21,0,0,1,585.13,161c.22.18-2.2,1.78-2,2,16,13.05,29.55,24.83,41.85,40.44.14.19,2.89.86,3,1.05l1.68,2.17c.2.25-1.24,1.89-1.05,2.15,16.5,21.61,32.28,45,43.83,71.2.52,1.18,6.28,3.56,6.79,4.75,4.1,9.6,7,19.43,11,29.48.52,1.3-4.94,1.8-4.38,3.12l-3.12,2c0,.06-4.06,2.75-4,2.8C687.47,351.35,697.86,378.51,697.86,410.55Z" fill="url(#linear-gradient)"></path><path d="M357.07,730h0Z" fill="#F53855"></path><path d="M453.5,518.56c-6.88,9.69-28.16,22.14-13.72,46.58s-1,29-10.85,26.68-40.66-3.52-35.53,10.46,13.92,19.25,2.65,24.65-16,19.43-27.56,38.78-38.67,2.62-30.61,22,14.32,17.55,13.57,31.08c-.18,3.72,2.29,7.54,5.62,11.17-4.29-.35-8.61-.79-12.88-1.31-1.51-.18-3-.38-4.52-.59-1.33-.18-2.66-.36-4-.57-1.15-.17-2.3-.34-3.43-.53-.26,0-.2-.09-.45-.12-2.75-.47-4.18-1-7.8-1.49h0c-2.41-2.29-.9-4.77-.54-7.45,3.6-25-30.89-42.17-36.67-59.69s-.07-27.89-1.39-42.37,3.38-33.61-4.94-45.79-41.84-16.2-48.22-40.69,8.52-61,14.32-67.27-27.76-34.58-43.7-35.49-9.61-33.21-36.68-28.3c-27.13,4.75-75.87-10.38-65.8-26.66,8.31-13.41,22.26-43-23.27-56.19,1.45-4.7,3.26-9.36,4.46-14h0c3.62-7.68,6-15.22,9.38-22.61,1.34-3,2.82-5.89,4.23-8.81a321.88,321.88,0,0,1,27.2-45.61c.93-1.31,1.9-2.6,2.85-3.9q5.7-7.76,11.87-15.13,9.22-11.08,19.41-21.3a321.58,321.58,0,0,1,58.76-46.6c9,6.32,19.31,10.22,28.21,5.41,21.81-12.2,7.43-14.07-1.5-14.53A11.48,11.48,0,0,1,235.6,126a316.81,316.81,0,0,1,52.74-21.75c-1.36,12.31-18.09,32.08-5.78,29.67,14.33-2.73,20.18-41.44,30.7-28.57,10.67,12.91-11.67,29.84,9.31,20S346.39,94,369.8,104.53s21.39,23.32,28,22.07,27.7,13,14.9,24.68-24.76-3.21-44.12-7.72-18.9,11.39-27.81,15c-9.06,3.5-52.78-17.63-63.51,1.46s-15.46,32.16.64,31.68S295,187.09,293.72,199s1.64,20.82,16.22,9.63,11.27-22.08,22.63-16.75,12.72.5,24.81-8.28,28-9.69,32.14,10-3,24.12-24.21,25.12-23.66-5.67-30.44,12.1-34.85,40.61-59.54,50S241,304.18,241.6,323s-8.68,38.69-14.87,23.17-23.63-41.76-41.4-24.25-48.79,48.57-14.55,54.24,16.34-26.23,33.62-19.83-10.93,20.55.6,25.65,16.39,2.73,16.3,18.47,3.82,31,17.84,24.33,32-37.48,52.27-19.24,18.85,15.9,29.49,10.58,17.41,10.62,21.77,17.88,21.45-.15,35.31,21.46,19.28,25.46,35.07,17.68,22.23-2,26.35,8.91,13.83.25,18.51,14.67S460.34,508.86,453.5,518.56Z" fill="#F53855"></path><path d="M507.58,256.8c-11.2-24,44.26-21.32,54.06-19.48,9.87,1.64,33-16.44,35.94-24.84s8-4.45,25.52-4.69,2-4.15-17.27-10.52-2.79-7-20.56-21c-7.64-6.14-5.23-11.36-.14-15.24A321.6,321.6,0,0,1,678.7,284.74a6.07,6.07,0,0,0-1.65-.28c-12.29-.07-15-27.24-21.32-32.53s.17,14.92,1.7,23.22-3.36,1.33-9.49,9-17.25,7.78-18.26-3.67-9.07-22.65-25.41-27.87-30.48-.93-43.76,4.19S518.85,280.63,507.58,256.8Z" fill="#F53855"></path><path d="M646.82,593.67c1.11-8.24,2.92-16.76-.53-19.88-8.37-7.77-10.2-28.93-7.29-39.65s25.44-10.14,10.14-28S620,467,626.41,454.84s4.49-13-7.59-12.95-17.4.61-29.45-10.15-28.63,25.72-74-3.65c-45.36-29.67-19.53-79.67-2.53-79.79,17.11-.29,37.09-8.92,23.07-29.78s7.87-23.9,18.54-19.14,29.63-7.94,48.95-13.64,18.51,25.87,29.26,32.18,31.07,1.31,41.59-8.79c7.52-7.21,9.16,1.19,16.59,9.17a321.31,321.31,0,0,1-44,275.37Z" fill="#F53855"></path><path d="M565.67,216.82s14.15-6.4,9-16.68-13.13-41.8-19-31.87,2.81,29.35.9,37.7S554.61,218.74,565.67,216.82Z" fill="#F53855"></path><path d="M551.56,207.2c-.2-3.32,1.88-16.77-8.7-16.35,0,0-15.32,6.38-6.35,17.25S551.79,210.5,551.56,207.2Z" fill="#F53855"></path><path d="M703.27,409.77a317.83,317.83,0,0,1-57,182.58,1.17,1.17,0,0,0-.22.63h0c-57.9,83.06-154.25,136.62-263.21,136.62a196.92,196.92,0,0,1-26.66-1.41s0,.32,0,.32c-4.29-.36-8.55-.4-12.8-.92-1.51-.18-3-.18-4.51-.39-1.34-.18-2.66-.26-4-.47-1.16-.17-2.3-.29-3.44-.48l-.77-.1c-2.8-.46-5.58-.94-8.36-1.47h0c-137-26.17-243-139.59-258.2-280.17,32.13,92.15,111.56,161.39,209.22,180.69h0c2.4,1.2,4.8,1,7.22,1.36.22,0,.45.1.67.14,1,.16,2,.32,3,.46s2.28.32,3.43.47c1.3.19,2.59.3,3.9.45,3.66.46,7.34,1.29,11,1.59,0,0,.05.35.08.35h0c7.53,0,15,.61,22.74.61A276.42,276.42,0,0,0,552.41,511.78c0-.18.3-.43.42-.62a276.87,276.87,0,0,0,37.84-237.3s-.11-.1-.11-.14h0c-2.42-9.85-6.3-19.48-10.3-28.85A277.29,277.29,0,0,0,412.62,90.51a319.06,319.06,0,0,1,171.66,69.82,322.67,322.67,0,0,1,94,123.72c4.63,10.85,7.59,22,12.41,33.41h0s-.37.09-.36.14C699.06,346.8,703.27,377.73,703.27,409.77Z" opacity="0.2" fill="url(#linear-gradient-2)" style="mix-blend-mode:multiply"></path></g><path d="M305.62,485.3h-.07a1.91,1.91,0,0,1-1.74-2c1.94-56.57-12.58-101.75-43.17-134.14-47.21-50-117.19-52.24-117.89-52.26a1.68,1.68,0,1,1,0-3.35h0c.72,0,72.21,2.1,120.44,53.2,31.28,33.12,46.13,79.18,44.15,136.75A1.87,1.87,0,0,1,305.62,485.3Z" fill="#fff"></path><path d="M405.72,550.13a1.81,1.81,0,0,1-1.77-1.47c-4.6-24-15.41-41.48-32.13-52.09-30.18-19.15-69.88-9.32-70.28-9.22a1.81,1.81,0,1,1-.9-3.5c1.68-.43,41.58-10.34,73.09,9.65,17.61,11.16,29,29.49,33.77,54.48a1.8,1.8,0,0,1-1.44,2.11A1.32,1.32,0,0,1,405.72,550.13Z" fill="#fff"></path><path d="M409.28,554a1.81,1.81,0,0,1-1.81-1.69c0-.44-2.44-43.73,15.65-88.38,10.65-26.3,26.21-47.93,46.25-64.31,25-20.47,57.13-32.71,95.38-36.39a1.81,1.81,0,1,1,.35,3.6c-68.18,6.56-114.82,39.68-138.62,98.45-17.79,43.91-15.42,86.38-15.4,86.8a1.81,1.81,0,0,1-1.69,1.92Z" fill="#fff"></path><circle cx="305.62" cy="483.19" r="15.98" fill="#fff"></circle><circle cx="405.72" cy="548.32" r="15.98" fill="#fff"></circle><circle cx="564.93" cy="364.99" r="15.98" fill="#fff"></circle><circle cx="142.79" cy="295.04" r="15.98" fill="#fff"></circle><ellipse cx="377.69" cy="786.78" rx="315.05" ry="17.5" fill="#111" opacity="0.12"></ellipse></g></g></g></svg>