<svg xmlns="http://www.w3.org/2000/svg" xmlns:xlink="http://www.w3.org/1999/xlink" viewBox="0 0 1207.25 778.52"><defs><linearGradient id="linear-gradient" x1="573.73" y1="239.26" x2="108.15" y2="43.28" gradientUnits="userSpaceOnUse"><stop offset="0" stop-color="#ab316d"></stop><stop offset="1" stop-color="#792d3d"></stop></linearGradient><linearGradient id="linear-gradient-2" x1="574.08" y1="238.44" x2="108.49" y2="42.46" xlink:href="#linear-gradient"></linearGradient><linearGradient id="linear-gradient-3" x1="283.49" y1="27.22" x2="287.57" y2="356.83" gradientUnits="userSpaceOnUse"><stop offset="0" stop-color="#ffc444"></stop><stop offset="1" stop-color="#f36f56"></stop></linearGradient><linearGradient id="linear-gradient-4" x1="637.48" y1="609.37" x2="637.48" y2="687.84" gradientUnits="userSpaceOnUse"><stop offset="0" stop-color="#444b8c"></stop><stop offset="1" stop-color="#26264f"></stop></linearGradient><linearGradient id="linear-gradient-5" x1="632.71" y1="395.28" x2="392.78" y2="382.04" gradientUnits="userSpaceOnUse"><stop offset="0" stop-color="#444b8c"></stop><stop offset="0.39" stop-color="#383c74"></stop><stop offset="1" stop-color="#26264f"></stop></linearGradient><linearGradient id="linear-gradient-6" x1="221.38" y1="373.66" x2="975.13" y2="373.66" xlink:href="#linear-gradient-4"></linearGradient><linearGradient id="linear-gradient-7" x1="813.62" y1="92.86" x2="320.51" y2="668.4" gradientUnits="userSpaceOnUse"><stop offset="0" stop-color="#aa80f9"></stop><stop offset="1" stop-color="#6165d7"></stop></linearGradient><linearGradient id="linear-gradient-8" x1="-2116.94" y1="-463.26" x2="-2086.04" y2="-463.26" gradientTransform="matrix(0.78, -0.63, 0.63, 0.78, 2313.51, -512.93)" gradientUnits="userSpaceOnUse"><stop offset="0" stop-color="#311944"></stop><stop offset="1" stop-color="#893976"></stop></linearGradient><linearGradient id="linear-gradient-9" x1="-1988.55" y1="-481.77" x2="-2017.46" y2="-470.85" xlink:href="#linear-gradient-8"></linearGradient><linearGradient id="linear-gradient-10" x1="-2122.4" y1="-424.79" x2="-2094.56" y2="-438.21" xlink:href="#linear-gradient-8"></linearGradient><linearGradient id="linear-gradient-11" x1="-2102.71" y1="-384.12" x2="-2088.01" y2="-411.3" xlink:href="#linear-gradient-8"></linearGradient><linearGradient id="linear-gradient-12" x1="-3225.31" y1="-1583.36" x2="-3251.98" y2="-1598.96" gradientTransform="matrix(0.33, -0.94, 0.94, 0.33, 3057.92, -2135.95)" xlink:href="#linear-gradient-8"></linearGradient><linearGradient id="linear-gradient-13" x1="-1990.86" y1="-396.99" x2="-2013.82" y2="-417.67" xlink:href="#linear-gradient-8"></linearGradient><linearGradient id="linear-gradient-14" x1="-2050.11" y1="-473.15" x2="-2051.02" y2="-382.21" xlink:href="#linear-gradient-8"></linearGradient><linearGradient id="linear-gradient-15" x1="-2035.73" y1="-535.82" x2="-2043.04" y2="-501.09" gradientTransform="matrix(0.78, -0.63, 0.63, 0.78, 2313.51, -512.93)" xlink:href="#linear-gradient-3"></linearGradient><linearGradient id="linear-gradient-16" x1="-2016.45" y1="-480.87" x2="-2014.66" y2="-643.16" gradientTransform="matrix(0.78, -0.63, 0.63, 0.78, 2313.51, -512.93)" xlink:href="#linear-gradient-3"></linearGradient><linearGradient id="linear-gradient-17" x1="-2087.42" y1="-481.65" x2="-2085.63" y2="-643.94" gradientTransform="matrix(0.78, -0.63, 0.63, 0.78, 2313.51, -512.93)" xlink:href="#linear-gradient-3"></linearGradient><linearGradient id="linear-gradient-18" x1="338.01" y1="444.51" x2="441.88" y2="444.51" gradientTransform="matrix(-1, 0, 0, 1, 856.56, 0)" gradientUnits="userSpaceOnUse"><stop offset="0" stop-color="#ff9085"></stop><stop offset="1" stop-color="#fb6fbb"></stop></linearGradient><linearGradient id="linear-gradient-19" x1="381.14" y1="460.87" x2="441.88" y2="460.87" xlink:href="#linear-gradient-18"></linearGradient><linearGradient id="linear-gradient-20" x1="5441.32" y1="-3269.51" x2="5109.82" y2="-2836.01" gradientTransform="matrix(-0.78, 0.63, 0.63, 0.78, 3301.2, -1306.51)" gradientUnits="userSpaceOnUse"><stop offset="0" stop-color="#311944"></stop><stop offset="1" stop-color="#a03976"></stop></linearGradient><linearGradient id="linear-gradient-21" x1="5492.44" y1="-3230.3" x2="5160.95" y2="-2796.82" xlink:href="#linear-gradient-20"></linearGradient><linearGradient id="linear-gradient-22" x1="11232.99" y1="-1737.72" x2="11259.29" y2="-1737.72" gradientTransform="matrix(-0.79, 0.62, 0.62, 0.79, 10807.3, -5448.65)" xlink:href="#linear-gradient-8"></linearGradient><linearGradient id="linear-gradient-23" x1="11342.26" y1="-1753.48" x2="11317.65" y2="-1744.19" gradientTransform="matrix(-0.79, 0.62, 0.62, 0.79, 10807.3, -5448.65)" xlink:href="#linear-gradient-8"></linearGradient><linearGradient id="linear-gradient-24" x1="11228.35" y1="-1704.99" x2="11252.04" y2="-1716.41" gradientTransform="matrix(-0.79, 0.62, 0.62, 0.79, 10807.3, -5448.65)" xlink:href="#linear-gradient-8"></linearGradient><linearGradient id="linear-gradient-25" x1="11245.1" y1="-1670.38" x2="11257.62" y2="-1693.51" gradientTransform="matrix(-0.79, 0.62, 0.62, 0.79, 10807.3, -5448.65)" xlink:href="#linear-gradient-8"></linearGradient><linearGradient id="linear-gradient-26" x1="8786.01" y1="4334.99" x2="8763.31" y2="4321.72" gradientTransform="matrix(-0.99, 0.11, 0.11, 0.99, 9059.07, -5087.3)" xlink:href="#linear-gradient-8"></linearGradient><linearGradient id="linear-gradient-27" x1="11340.29" y1="-1681.33" x2="11320.75" y2="-1698.93" gradientTransform="matrix(-0.79, 0.62, 0.62, 0.79, 10807.3, -5448.65)" xlink:href="#linear-gradient-8"></linearGradient><linearGradient id="linear-gradient-28" x1="11289.87" y1="-1746.15" x2="11289.09" y2="-1668.75" gradientTransform="matrix(-0.79, 0.62, 0.62, 0.79, 10807.3, -5448.65)" xlink:href="#linear-gradient-8"></linearGradient><linearGradient id="linear-gradient-29" x1="11302.11" y1="-1799.48" x2="11295.89" y2="-1769.92" gradientTransform="matrix(-0.79, 0.62, 0.62, 0.79, 10807.3, -5448.65)" xlink:href="#linear-gradient-3"></linearGradient><linearGradient id="linear-gradient-30" x1="11318.51" y1="-1752.71" x2="11320.04" y2="-1890.82" gradientTransform="matrix(-0.79, 0.62, 0.62, 0.79, 10807.3, -5448.65)" xlink:href="#linear-gradient-3"></linearGradient><linearGradient id="linear-gradient-31" x1="11258.11" y1="-1753.38" x2="11259.64" y2="-1891.49" gradientTransform="matrix(-0.79, 0.62, 0.62, 0.79, 10807.3, -5448.65)" xlink:href="#linear-gradient-3"></linearGradient><linearGradient id="linear-gradient-32" x1="-9245.81" y1="-8912.55" x2="-9157.42" y2="-8912.55" gradientTransform="translate(11634.04 -6753.83) rotate(-77.05)" xlink:href="#linear-gradient-18"></linearGradient><linearGradient id="linear-gradient-33" x1="-9207.87" y1="-8898.57" x2="-9158.39" y2="-8898.57" gradientTransform="translate(11634.04 -6753.83) rotate(-77.05)" xlink:href="#linear-gradient-18"></linearGradient><linearGradient id="linear-gradient-34" x1="-9021.73" y1="-295.43" x2="-9151.66" y2="-474.15" gradientTransform="translate(9812.78 -4664.22) rotate(-38.25)" xlink:href="#linear-gradient-20"></linearGradient><linearGradient id="linear-gradient-35" x1="-8979.06" y1="-326.48" x2="-9108.99" y2="-505.2" gradientTransform="translate(9812.78 -4664.22) rotate(-38.25)" xlink:href="#linear-gradient-20"></linearGradient><linearGradient id="linear-gradient-36" x1="1420.74" y1="713.87" x2="1427.05" y2="794.15" gradientTransform="matrix(-1, 0, 0, 1, 1635.95, -0.56)" xlink:href="#linear-gradient-20"></linearGradient><linearGradient id="linear-gradient-37" x1="1437.02" y1="758.56" x2="1435.88" y2="675.43" gradientTransform="matrix(-1, 0, 0, 1, 1635.95, -0.56)" xlink:href="#linear-gradient-3"></linearGradient><linearGradient id="linear-gradient-38" x1="1539.93" y1="704.51" x2="1546.24" y2="784.78" gradientTransform="matrix(-1, 0, 0, 1, 1635.95, -0.56)" xlink:href="#linear-gradient-20"></linearGradient><linearGradient id="linear-gradient-39" x1="1546.25" y1="757.06" x2="1545.11" y2="673.92" gradientTransform="matrix(-1, 0, 0, 1, 1635.95, -0.56)" xlink:href="#linear-gradient-3"></linearGradient><linearGradient id="linear-gradient-40" x1="1417.18" y1="623.88" x2="1478.65" y2="623.88" gradientTransform="matrix(-1, 0, 0, 1, 1635.95, -0.56)" gradientUnits="userSpaceOnUse"><stop offset="0" stop-color="#444b8c"></stop><stop offset="1" stop-color="#3e4177"></stop></linearGradient><linearGradient id="linear-gradient-41" x1="1417.18" y1="623.89" x2="1478.65" y2="623.89" xlink:href="#linear-gradient-40"></linearGradient><linearGradient id="linear-gradient-42" x1="1434.25" y1="617.83" x2="1557.99" y2="617.83" xlink:href="#linear-gradient-40"></linearGradient><linearGradient id="linear-gradient-43" x1="759.3" y1="333.99" x2="619.88" y2="562.89" gradientTransform="matrix(-1, 0, 0, 1, 856.56, 0)" xlink:href="#linear-gradient-3"></linearGradient><linearGradient id="linear-gradient-44" x1="718.02" y1="264.74" x2="721.02" y2="368.74" gradientTransform="matrix(-1, 0, 0, 1, 856.56, 0)" xlink:href="#linear-gradient-4"></linearGradient><linearGradient id="linear-gradient-45" x1="568.71" y1="452.23" x2="668.26" y2="452.23" gradientTransform="matrix(-1, 0, 0, 1, 856.56, 0)" xlink:href="#linear-gradient-3"></linearGradient><linearGradient id="linear-gradient-46" x1="7049.46" y1="-1564.85" x2="7071.85" y2="-1564.85" gradientTransform="matrix(-0.86, 0.52, 0.52, 0.86, 7149.34, -1841.93)" xlink:href="#linear-gradient-3"></linearGradient><linearGradient id="linear-gradient-47" x1="834.74" y1="379.93" x2="695.31" y2="608.84" gradientTransform="matrix(-1, 0, 0, 1, 856.56, 0)" xlink:href="#linear-gradient-3"></linearGradient><linearGradient id="linear-gradient-48" x1="632.01" y1="483.81" x2="836.25" y2="483.81" gradientTransform="matrix(-1, 0, 0, 1, 856.56, 0)" xlink:href="#linear-gradient-3"></linearGradient><linearGradient id="linear-gradient-49" x1="528.45" y1="498.81" x2="781.99" y2="498.81" gradientTransform="matrix(-1, 0, 0, 1, 856.56, 0)" xlink:href="#linear-gradient-4"></linearGradient><linearGradient id="linear-gradient-50" x1="294.62" y1="418.77" x2="556.22" y2="418.77" gradientTransform="matrix(-1, 0, 0, 1, 856.56, 0)" xlink:href="#linear-gradient-4"></linearGradient><linearGradient id="linear-gradient-51" x1="-6628.51" y1="1271.17" x2="-6760.23" y2="1123.69" gradientTransform="translate(6862.24 2721.8) rotate(29.48)" xlink:href="#linear-gradient-4"></linearGradient><linearGradient id="linear-gradient-52" x1="-6822.14" y1="1055.84" x2="-6643.49" y2="1252.5" gradientTransform="translate(6862.24 2721.8) rotate(29.48)" xlink:href="#linear-gradient-4"></linearGradient><linearGradient id="linear-gradient-53" x1="1025.73" y1="2.77" x2="635.94" y2="782.35" gradientUnits="userSpaceOnUse"><stop offset="0" stop-color="#e38ddd"></stop><stop offset="1" stop-color="#9571f6"></stop></linearGradient><linearGradient id="linear-gradient-54" x1="856.52" y1="-21.92" x2="922.91" y2="243.63" xlink:href="#linear-gradient-53"></linearGradient><linearGradient id="linear-gradient-55" x1="985.34" y1="37.92" x2="1054.04" y2="175.79" xlink:href="#linear-gradient-3"></linearGradient><linearGradient id="linear-gradient-56" x1="1025.74" y1="128.48" x2="1092.47" y2="252.24" xlink:href="#linear-gradient-3"></linearGradient><linearGradient id="linear-gradient-57" x1="1007.42" y1="136.7" x2="1072.24" y2="266.79" xlink:href="#linear-gradient-3"></linearGradient><linearGradient id="linear-gradient-58" x1="907.67" y1="314.3" x2="896.78" y2="331.91" xlink:href="#linear-gradient-3"></linearGradient><linearGradient id="linear-gradient-59" x1="1062.77" y1="522.78" x2="1067.17" y2="531.82" xlink:href="#linear-gradient-3"></linearGradient><linearGradient id="linear-gradient-60" x1="-197.99" y1="753.03" x2="-197.99" y2="724.67" gradientTransform="translate(1249.56)" xlink:href="#linear-gradient-3"></linearGradient><linearGradient id="linear-gradient-61" x1="-284.45" y1="761.12" x2="-284.45" y2="726.93" gradientTransform="translate(1249.56)" xlink:href="#linear-gradient-3"></linearGradient><linearGradient id="linear-gradient-62" x1="-303.57" y1="626.83" x2="-191.73" y2="626.83" gradientTransform="translate(1249.56)" xlink:href="#linear-gradient-8"></linearGradient><linearGradient id="linear-gradient-63" x1="-307.13" y1="543.46" x2="-226.55" y2="678.8" gradientTransform="translate(1249.56)" xlink:href="#linear-gradient-8"></linearGradient><linearGradient id="linear-gradient-64" x1="-275.41" y1="524.57" x2="-194.83" y2="659.91" gradientTransform="translate(1249.56)" xlink:href="#linear-gradient-8"></linearGradient><linearGradient id="linear-gradient-65" x1="993.9" y1="459.2" x2="1084.76" y2="459.2" xlink:href="#linear-gradient-3"></linearGradient><linearGradient id="linear-gradient-66" x1="935.53" y1="499.44" x2="1115.56" y2="499.44" xlink:href="#linear-gradient-3"></linearGradient><linearGradient id="linear-gradient-67" x1="-254.69" y1="375.85" x2="-238.17" y2="402.1" gradientTransform="translate(1249.56)" xlink:href="#linear-gradient-53"></linearGradient><linearGradient id="linear-gradient-68" x1="-234.75" y1="371.82" x2="-252.9" y2="401.19" gradientTransform="translate(1249.56)" xlink:href="#linear-gradient-3"></linearGradient><linearGradient id="linear-gradient-69" x1="-2009.48" y1="-184.13" x2="-2027.04" y2="-155.72" gradientTransform="translate(3004.39 72.33) rotate(-13.66)" xlink:href="#linear-gradient-3"></linearGradient><linearGradient id="linear-gradient-70" x1="1002.99" y1="246.41" x2="1155.11" y2="488.2" xlink:href="#linear-gradient-4"></linearGradient><linearGradient id="linear-gradient-71" x1="893.78" y1="388.05" x2="990.71" y2="388.05" xlink:href="#linear-gradient-3"></linearGradient><linearGradient id="linear-gradient-72" x1="944.75" y1="404.16" x2="1031.18" y2="581.88" gradientTransform="matrix(1, 0, 0, 1, 0, 0)" xlink:href="#linear-gradient-18"></linearGradient><linearGradient id="linear-gradient-73" x1="2487.86" y1="291.24" x2="2396.4" y2="729.74" gradientTransform="matrix(1, 0, -0.1, 1, -1654.14, 17.06)" xlink:href="#linear-gradient-18"></linearGradient><linearGradient id="linear-gradient-74" x1="-3296.93" y1="832.64" x2="-3269.54" y2="832.64" gradientTransform="matrix(-1, 0.03, -0.07, 1, -2533.83, 30.48)" xlink:href="#linear-gradient-8"></linearGradient><linearGradient id="linear-gradient-75" x1="-1556.06" y1="1307.17" x2="-1526.96" y2="1307.17" gradientTransform="matrix(-0.99, 0.27, 0.17, 0.97, -966.55, -88.1)" xlink:href="#linear-gradient-8"></linearGradient><linearGradient id="linear-gradient-76" x1="2517.41" y1="695.62" x2="2439.79" y2="520.65" gradientTransform="matrix(1, 0, -0.1, 1, -1654.14, 17.06)" xlink:href="#linear-gradient-8"></linearGradient><linearGradient id="linear-gradient-77" x1="1506.31" y1="1036.74" x2="1428.7" y2="861.78" gradientTransform="matrix(1, -0.12, 0.03, 1, -786.62, -123.86)" xlink:href="#linear-gradient-8"></linearGradient><linearGradient id="linear-gradient-78" x1="2456.2" y1="284.63" x2="2364.74" y2="723.13" gradientTransform="matrix(1, 0, -0.1, 1, -1654.14, 17.06)" xlink:href="#linear-gradient-18"></linearGradient><linearGradient id="linear-gradient-79" x1="2377.54" y1="659.66" x2="2412.25" y2="494.78" gradientTransform="matrix(1, 0, -0.1, 1, -1654.14, 17.06)" xlink:href="#linear-gradient-18"></linearGradient><linearGradient id="linear-gradient-80" x1="2393.54" y1="271.57" x2="2302.08" y2="710.07" gradientTransform="matrix(1, 0, -0.1, 1, -1654.14, 17.06)" xlink:href="#linear-gradient-18"></linearGradient><linearGradient id="linear-gradient-81" x1="2471.52" y1="516.38" x2="2456.72" y2="474.45" gradientTransform="matrix(1, 0, -0.1, 1, -1654.14, 17.06)" xlink:href="#linear-gradient-53"></linearGradient><linearGradient id="linear-gradient-82" x1="2406.86" y1="455.63" x2="2412.29" y2="493.12" gradientTransform="matrix(1, 0, -0.1, 1, -1654.14, 17.06)" xlink:href="#linear-gradient-53"></linearGradient><linearGradient id="linear-gradient-83" x1="2514.39" y1="458.91" x2="2485.53" y2="417.94" gradientTransform="matrix(1, 0, -0.1, 1, -1654.14, 17.06)" xlink:href="#linear-gradient-53"></linearGradient><linearGradient id="linear-gradient-84" x1="2459.04" y1="526.72" x2="2522.19" y2="398.45" gradientTransform="matrix(1, 0, -0.1, 1, -1654.14, 17.06)" xlink:href="#linear-gradient-53"></linearGradient><linearGradient id="linear-gradient-85" x1="2428.19" y1="444.39" x2="2566.92" y2="444.39" gradientTransform="matrix(1, 0, -0.1, 1, -1654.14, 17.06)" xlink:href="#linear-gradient-53"></linearGradient><linearGradient id="linear-gradient-86" x1="-3613.55" y1="194.53" x2="-3634.26" y2="141.92" gradientTransform="matrix(-1, 0, -0.09, 1, -2876.53, 186.48)" gradientUnits="userSpaceOnUse"><stop offset="0" stop-color="#311944"></stop><stop offset="1" stop-color="#6b3976"></stop></linearGradient><linearGradient id="linear-gradient-87" x1="-3619.88" y1="197.04" x2="-3640.61" y2="144.38" xlink:href="#linear-gradient-86"></linearGradient></defs><g style="isolation:isolate"><g id="Layer_2" data-name="Layer 2"><g id="Layer_1-2" data-name="Layer 1"><path d="M349.59,173.36c8.36,4.24,18.86.35,23.46-8.71s1.54-19.83-6.82-24.07c-.43-.22-.87-.4-1.31-.58a107.18,107.18,0,0,0,3.51-15.11c.47,0,1,0,1.44,0,9.54-.85,17.11-9.61,16.91-19.57s-8.09-17.35-17.63-16.5a14.06,14.06,0,0,0-1.47.21,98,98,0,0,0-4.09-14.43,14.88,14.88,0,0,0,1.3-.82c8.16-5.71,10.77-17,5.83-25.2S355.16,38.32,347,44c-.42.3-.81.61-1.2.93a86.15,86.15,0,0,0-10.58-9.87c.27-.44.53-.89.77-1.36,4.59-9,10.6-18.94,2.17-23-19.49-9.52-27.85-1.37-32.44,7.68-.24.47-.45.95-.64,1.42a86.12,86.12,0,0,0-14.22-2.71c0-.5.05-1,0-1.52C290.7,5.59,293.66.2,284.08,0c-20.87-.4-27.92,8.66-27.72,18.62,0,.52.06,1,.11,1.53a97.92,97.92,0,0,0-14.06,5.22,13.75,13.75,0,0,0-.7-1.31c-4.94-8.21-15.56-10.22-23.72-4.5s-10.77,17-5.83,25.2c.26.42.53.81.82,1.2a106.09,106.09,0,0,0-10.13,11.74c-.4-.25-.81-.5-1.25-.72-8.36-4.24-18.86-.34-23.45,8.71S176.6,85.53,185,89.77a13.92,13.92,0,0,0,1.32.58,107.18,107.18,0,0,0-3.51,15.11c-.48,0-1,0-1.45.05-9.53.85-17.1,9.62-16.9,19.58s8.09,17.34,17.63,16.49c.49,0,1-.12,1.47-.21a98,98,0,0,0,4.08,14.43c-.43.26-.87.52-1.3.82-8.16,5.72-10.77,17-5.82,25.2s21.3,12,29.46,6.29c.41-.29-4.93-2.4-4.54-2.72A86.28,86.28,0,0,0,216,195.27c-.27.44-.53.88-.77,1.35-4.6,9-1.55,19.83,6.81,24.08s18.86.34,23.46-8.71c.24-.47.44-.94.64-1.42a86.12,86.12,0,0,0,14.22,2.71c0,.51,0,1,0,1.52.2,10,8.09,17.35,17.63,16.5s17.1-9.62,16.9-19.58c0-.52-.05-1-.1-1.53a97.8,97.8,0,0,0,14-5.22c.22.45.45.89.7,1.32,4.95,8.2,15.57,10.21,23.73,4.5s10.76-17,5.82-25.21c-.25-.42-.53-.81-.81-1.2a106.24,106.24,0,0,0,10.13-11.74C348.75,172.89,349.16,173.14,349.59,173.36Zm-104.2,1.32C215,159.27,204,120.14,220.64,87.27s54.82-47,85.17-31.6,41.43,54.54,24.74,87.41S275.74,190.09,245.39,174.68Z" fill="url(#linear-gradient)"></path><path d="M369.87,124.84c9.54-.85,17.11-9.61,16.91-19.57s-8.09-17.35-17.63-16.5a14.06,14.06,0,0,0-1.47.21,98,98,0,0,0-4.09-14.43,14.88,14.88,0,0,0,1.3-.82c8.16-5.71,18.26-19.53,12.5-27.18C366.47,32,355.16,38.32,347,44c-.42.3-.81.61-1.2.93a86.15,86.15,0,0,0-10.58-9.87c.27-.44.53-.89.77-1.36a19,19,0,0,0,1.07-15q-11.82,20.8-23.29,41.8c24.21,17.74,31.92,52.71,16.78,82.52-12.82,25.26-38.32,39.44-63.21,37.66-1.11,2.88-2.2,5.78-3.39,8.63-3.23,7.74-6.89,15.32-10.56,22.89,2.31.44,4.62.78,6.95,1,0,.51,0,1,0,1.52.2,10,6.24,18.43,23.53,17.51,9.56-.51,11.2-10.63,11-20.59,0-.52-.05-1-.1-1.53a97.8,97.8,0,0,0,14-5.22c.22.45.45.89.7,1.32,4.95,8.2,22.09,11.68,30.25,6s4.24-18.47-.7-26.68c-.25-.42-.53-.81-.81-1.2a106.24,106.24,0,0,0,10.13-11.74c.4.25.81.5,1.24.72,8.36,4.24,18.86.35,23.46-8.71s1.54-19.83-6.81-24.07c-.44-.22-.88-.4-1.32-.58a107.18,107.18,0,0,0,3.51-15.11C368.9,124.89,369.39,124.88,369.87,124.84Z" fill="url(#linear-gradient-2)"></path><path d="M358.58,174.38c8.36,4.24,18.86.35,23.46-8.7s1.55-19.83-6.81-24.08c-.44-.22-.88-.4-1.32-.58a107,107,0,0,0,3.51-15.1c.48,0,1,0,1.45-.06,9.53-.85,17.1-9.61,16.9-19.57s-8.09-17.35-17.63-16.5q-.75.08-1.47.21a96.32,96.32,0,0,0-4.09-14.42c.44-.26.88-.53,1.31-.82,8.15-5.72,10.76-17,5.82-25.21S364.15,39.34,356,45.06c-.42.29-.81.61-1.2.93a85.46,85.46,0,0,0-10.58-9.88c.27-.44.53-.89.77-1.36,4.59-9,1.54-19.83-6.82-24.07s-18.86-.35-23.45,8.7c-.24.47-.45.95-.64,1.42a87.17,87.17,0,0,0-14.22-2.71c0-.5,0-1,0-1.52-.2-10-8.09-17.34-17.63-16.49s-17.11,9.61-16.91,19.57c0,.52.06,1,.11,1.54A97.12,97.12,0,0,0,251.4,26.4c-.21-.44-.44-.88-.7-1.31-4.94-8.2-15.56-10.22-23.72-4.5s-10.77,17-5.83,25.2c.26.42.53.81.82,1.2a105.3,105.3,0,0,0-10.13,11.75,12.71,12.71,0,0,0-1.25-.72c-8.35-4.25-18.86-.35-23.45,8.7S185.59,86.55,194,90.79c.44.22.88.41,1.32.59a106.73,106.73,0,0,0-3.51,15.1c-.48,0-1,0-1.45,0-9.53.85-17.1,9.62-16.9,19.58s8.09,17.35,17.63,16.5c.49-.05,1-.13,1.47-.21a98.18,98.18,0,0,0,4.08,14.42c-.43.26-.87.52-1.3.82-8.16,5.72-10.77,17-5.82,25.2s15.56,10.22,23.72,4.5c.42-.29.81-.61,1.2-.93A87,87,0,0,0,225,196.29c-.27.44-.53.89-.77,1.35-4.6,9.06-1.54,19.83,6.81,24.08s18.87.35,23.46-8.71c.24-.46.44-.94.64-1.42a86.15,86.15,0,0,0,14.22,2.72c0,.5-.05,1,0,1.51.2,10,8.09,17.35,17.63,16.5s17.1-9.61,16.9-19.57c0-.53-.05-1-.1-1.54a96.62,96.62,0,0,0,14-5.22c.22.45.45.89.71,1.32,4.94,8.2,15.56,10.21,23.72,4.5s10.77-17,5.82-25.2c-.25-.42-.53-.82-.81-1.2a106.21,106.21,0,0,0,10.13-11.75C357.74,173.91,358.15,174.16,358.58,174.38Zm-104.2,1.32C224,160.29,213,121.16,229.63,88.3s54.82-47,85.17-31.61,41.43,54.55,24.74,87.41S284.73,191.11,254.38,175.7Z" fill="url(#linear-gradient-3)"></path><path d="M595.78,12.35C394.05,6.53,219.31,149.72,192.91,337.6,164.05,543,322.92,727.87,518.4,757.47c243.14,36.82,479-176.2,457.8-407.3C960.24,176.06,800.84,18.28,595.78,12.35Z" fill="#f4f7fa"></path><path d="M709.63,684.15A33.36,33.36,0,0,1,687.5,659L671.05,577.6l-140.72,5L513,667.42c-2.43,11.88,7.28,23.8,18.47,28.17l58.87,23a76.61,76.61,0,0,0,34.42,5L749.2,713a7.71,7.71,0,0,0,7-6.83c.43-3.67,3-7.79-.49-8.94Z" fill="#97a6b7"></path><path d="M711,679.2a33.08,33.08,0,0,1-22.11-24.81L672.48,574l-137.29,4.94-17.3,83.76a24.51,24.51,0,0,0,15.16,27.81l58.81,22.74a77.28,77.28,0,0,0,34.39,4.93l124.3-10.51a7.67,7.67,0,0,0,1.74-14.93Z" fill="url(#linear-gradient-4)"></path><path d="M242.78,631.72c-15.26.91-27.74-9-27.74-22.07V138.1c0-13.08,12.48-23.19,27.74-22.53l708.79,49.07c11.21.49,17.22-8.56,17.22,2.57v401a21.76,21.76,0,0,1-20.28,21.39Z" fill="url(#linear-gradient-5)"></path><path d="M249.12,631.72c-15.26.91-27.74-9-27.74-22.07V138.1c0-13.08,12.48-23.19,27.74-22.53l705.74,30.58a21.33,21.33,0,0,1,20.27,21.06v401a21.76,21.76,0,0,1-20.27,21.39Z" fill="url(#linear-gradient-6)"></path><path d="M954.86,155.59l-705.74-29c-8.15-.34-14.79,5.05-14.79,12V608.93c0,7,6.64,12.27,14.79,11.8l705.74-40.52a11.62,11.62,0,0,0,10.86-11.43V166.85A11.4,11.4,0,0,0,954.86,155.59Z" fill="#d8dee8" opacity="0.3" style="mix-blend-mode:multiply"></path><path d="M949.61,546.27l-692.84,34.2c-7.27.36-13.18-4.44-13.18-10.73v-425c0-6.29,5.91-11.17,13.18-10.9L949.61,159.6a10.27,10.27,0,0,1,9.84,10.17V536A10.43,10.43,0,0,1,949.61,546.27Z" fill="url(#linear-gradient-7)"></path><polygon points="429.61 178.76 271.38 174.1 271.38 159.02 429.61 164.13 429.61 178.76" fill="#fff" opacity="0.6" style="mix-blend-mode:soft-light"></polygon><polygon points="504.13 176.78 467.57 175.67 467.57 165.36 504.13 166.54 504.13 176.78" fill="#fff" opacity="0.36" style="mix-blend-mode:soft-light"></polygon><polygon points="504.13 190.99 467.57 189.99 467.57 179.68 504.13 180.76 504.13 190.99" fill="#fff" opacity="0.36" style="mix-blend-mode:soft-light"></polygon><polygon points="686.28 195.98 544.48 192.09 544.48 181.95 686.28 186.12 686.28 195.98" fill="#fff" style="mix-blend-mode:soft-light"></polygon><polygon points="709.53 210.23 569.14 206.8 569.14 196.7 709.53 200.43 709.53 210.23" fill="#fff" style="mix-blend-mode:soft-light"></polygon><polygon points="709.53 223.85 569.14 220.82 569.14 210.73 709.53 214.05 709.53 223.85" fill="#fff" style="mix-blend-mode:soft-light"></polygon><polygon points="709.53 237.47 569.14 234.85 569.14 224.75 709.53 227.67 709.53 237.47" fill="#fff" style="mix-blend-mode:soft-light"></polygon><polygon points="504.13 205.21 467.57 204.31 467.57 194 504.13 194.97 504.13 205.21" fill="#fff" opacity="0.36" style="mix-blend-mode:soft-light"></polygon><polygon points="504.13 219.42 467.57 218.63 467.57 208.32 504.13 209.19 504.13 219.42" fill="#fff" opacity="0.36" style="mix-blend-mode:soft-light"></polygon><polygon points="504.13 233.63 467.57 232.95 467.57 222.64 504.13 223.4 504.13 233.63" fill="#fff" opacity="0.36" style="mix-blend-mode:soft-light"></polygon><polygon points="504.13 247.85 467.57 247.27 467.57 236.96 504.13 237.62 504.13 247.85" fill="#fff" opacity="0.36" style="mix-blend-mode:soft-light"></polygon><polygon points="602.07 249.4 512.1 247.97 512.1 237.76 602.07 239.37 602.07 249.4" fill="#fff" style="mix-blend-mode:soft-light"></polygon><polygon points="504.13 262.06 467.57 261.59 467.57 251.28 504.13 251.83 504.13 262.06" fill="#fff" opacity="0.36" style="mix-blend-mode:soft-light"></polygon><polygon points="504.13 276.28 467.57 275.91 467.57 265.61 504.13 266.05 504.13 276.28" fill="#fff" opacity="0.36" style="mix-blend-mode:soft-light"></polygon><polygon points="504.13 290.49 467.57 290.23 467.57 279.93 504.13 280.26 504.13 290.49" fill="#fff" opacity="0.36" style="mix-blend-mode:soft-light"></polygon><polygon points="644.23 263.87 544.48 262.58 544.48 252.44 644.23 253.93 644.23 263.87" fill="#fff" style="mix-blend-mode:soft-light"></polygon><polygon points="696.05 278.2 569.14 276.93 569.14 266.83 696.05 268.37 696.05 278.2" fill="#fff" style="mix-blend-mode:soft-light"></polygon><polygon points="696.05 291.86 569.14 290.96 569.14 280.86 696.05 282.03 696.05 291.86" fill="#fff" style="mix-blend-mode:soft-light"></polygon><polygon points="504.13 304.71 467.57 304.55 467.57 294.25 504.13 294.48 504.13 304.71" fill="#fff" opacity="0.36" style="mix-blend-mode:soft-light"></polygon><polygon points="504.13 318.92 467.57 318.87 467.57 308.57 504.13 308.69 504.13 318.92" fill="#fff" opacity="0.36" style="mix-blend-mode:soft-light"></polygon><polygon points="504.13 333.14 467.57 333.19 467.57 322.89 504.13 322.91 504.13 333.14" fill="#fff" opacity="0.36" style="mix-blend-mode:soft-light"></polygon><polygon points="504.13 347.35 467.57 347.51 467.57 337.21 504.13 337.12 504.13 347.35" fill="#fff" opacity="0.36" style="mix-blend-mode:soft-light"></polygon><polygon points="504.13 361.57 467.57 361.83 467.57 351.53 504.13 351.34 504.13 361.57" fill="#fff" opacity="0.36" style="mix-blend-mode:soft-light"></polygon><polygon points="504.13 375.78 467.57 376.15 467.57 365.85 504.13 365.55 504.13 375.78" fill="#fff" opacity="0.36" style="mix-blend-mode:soft-light"></polygon><polygon points="504.13 390 467.57 390.48 467.57 380.17 504.13 379.76 504.13 390" fill="#fff" opacity="0.36" style="mix-blend-mode:soft-light"></polygon><polygon points="504.13 404.21 467.57 404.8 467.57 394.49 504.13 393.98 504.13 404.21" fill="#fff" opacity="0.36" style="mix-blend-mode:soft-light"></polygon><polygon points="504.13 418.43 467.57 419.12 467.57 408.81 504.13 408.19 504.13 418.43" fill="#fff" opacity="0.36" style="mix-blend-mode:soft-light"></polygon><polygon points="504.13 432.64 467.57 433.44 467.57 423.13 504.13 422.41 504.13 432.64" fill="#fff" opacity="0.36" style="mix-blend-mode:soft-light"></polygon><polygon points="504.13 446.86 467.57 447.76 467.57 437.45 504.13 436.62 504.13 446.86" fill="#fff" opacity="0.36" style="mix-blend-mode:soft-light"></polygon><polygon points="504.13 461.07 467.57 462.08 467.57 451.77 504.13 450.84 504.13 461.07" fill="#fff" opacity="0.36" style="mix-blend-mode:soft-light"></polygon><polygon points="504.13 475.28 467.57 476.4 467.57 466.09 504.13 465.05 504.13 475.28" fill="#fff" opacity="0.36" style="mix-blend-mode:soft-light"></polygon><polygon points="504.13 489.5 467.57 490.72 467.57 480.41 504.13 479.27 504.13 489.5" fill="#fff" opacity="0.36" style="mix-blend-mode:soft-light"></polygon><polygon points="504.13 503.71 467.57 505.04 467.57 494.73 504.13 493.48 504.13 503.71" fill="#fff" opacity="0.36" style="mix-blend-mode:soft-light"></polygon><polygon points="504.13 517.93 467.57 519.36 467.57 509.05 504.13 507.7 504.13 517.93" fill="#fff" opacity="0.36" style="mix-blend-mode:soft-light"></polygon><polygon points="504.13 532.14 467.57 533.68 467.57 523.37 504.13 521.91 504.13 532.14" fill="#fff" opacity="0.36" style="mix-blend-mode:soft-light"></polygon><polygon points="504.13 546.36 467.57 548 467.57 537.69 504.13 536.13 504.13 546.36" fill="#fff" opacity="0.36" style="mix-blend-mode:soft-light"></polygon><polygon points="611.54 180.03 511.85 177.01 511.85 166.79 611.54 170.02 611.54 180.03" fill="#fff" style="mix-blend-mode:soft-light"></polygon><polygon points="686.28 469.74 544.48 474.06 544.48 463.91 686.28 459.88 686.28 469.74" fill="#fff" style="mix-blend-mode:soft-light"></polygon><polygon points="709.53 482.65 569.14 487.33 569.14 477.24 709.53 472.85 709.53 482.65" fill="#fff" style="mix-blend-mode:soft-light"></polygon><polygon points="709.53 496.27 569.14 501.36 569.14 491.26 709.53 486.47 709.53 496.27" fill="#fff" style="mix-blend-mode:soft-light"></polygon><polygon points="770.03 507.52 633.27 512.88 633.27 502.91 770.03 497.85 770.03 507.52" fill="#fff" style="mix-blend-mode:soft-light"></polygon><polygon points="770.03 520.97 633.27 526.72 633.27 516.75 770.03 511.29 770.03 520.97" fill="#fff" style="mix-blend-mode:soft-light"></polygon><polygon points="770.03 534.42 633.27 540.56 633.27 530.6 770.03 524.74 770.03 534.42" fill="#fff" style="mix-blend-mode:soft-light"></polygon><polygon points="611.54 458.11 511.85 460.86 511.85 450.64 611.54 448.1 611.54 458.11" fill="#fff" style="mix-blend-mode:soft-light"></polygon><polygon points="686.28 319.17 544.48 318.98 544.48 308.83 686.28 309.32 686.28 319.17" fill="#fff" style="mix-blend-mode:soft-light"></polygon><polygon points="709.53 332.82 569.14 333.04 569.14 322.94 709.53 323.02 709.53 332.82" fill="#fff" style="mix-blend-mode:soft-light"></polygon><polygon points="709.53 346.44 569.14 347.06 569.14 336.97 709.53 336.64 709.53 346.44" fill="#fff" style="mix-blend-mode:soft-light"></polygon><polygon points="709.53 360.06 569.14 361.09 569.14 351 709.53 350.26 709.53 360.06" fill="#fff" style="mix-blend-mode:soft-light"></polygon><polygon points="602.07 374.78 512.1 375.7 512.1 365.49 602.07 364.75 602.07 374.78" fill="#fff" style="mix-blend-mode:soft-light"></polygon><polygon points="644.23 388.16 544.48 389.47 544.48 379.32 644.23 378.22 644.23 388.16" fill="#fff" style="mix-blend-mode:soft-light"></polygon><polygon points="696.05 401.14 569.14 403.17 569.14 393.07 696.05 391.31 696.05 401.14" fill="#fff" style="mix-blend-mode:soft-light"></polygon><polygon points="696.05 414.8 569.14 417.2 569.14 407.1 696.05 404.97 696.05 414.8" fill="#fff" style="mix-blend-mode:soft-light"></polygon><polygon points="724.19 427.85 598.8 430.58 598.8 420.54 724.19 418.07 724.19 427.85" fill="#fff" style="mix-blend-mode:soft-light"></polygon><polygon points="724.19 441.43 598.8 444.52 598.8 434.49 724.19 431.65 724.19 441.43" fill="#fff" style="mix-blend-mode:soft-light"></polygon><polygon points="611.54 305.16 511.85 304.74 511.85 294.53 611.54 295.16 611.54 305.16" fill="#fff" style="mix-blend-mode:soft-light"></polygon><polygon points="429.61 201.6 339.04 199.36 339.04 184.47 429.61 186.98 429.61 201.6" fill="#fff" style="mix-blend-mode:soft-light"></polygon><polygon points="315.62 198.77 332.68 199.2 332.68 184.29 315.62 183.82 315.62 198.77" fill="#fff" opacity="0.6" style="mix-blend-mode:soft-light"></polygon><polygon points="429.61 222.63 339.04 220.76 339.04 205.87 429.61 208 429.61 222.63" fill="#fff" opacity="0.6" style="mix-blend-mode:soft-light"></polygon><polygon points="315.62 220.27 332.68 220.63 332.68 205.72 315.62 205.32 315.62 220.27" fill="#fff" opacity="0.6" style="mix-blend-mode:soft-light"></polygon><polygon points="429.61 243.65 339.04 242.16 339.04 227.27 429.61 229.02 429.61 243.65" fill="#fff" opacity="0.6" style="mix-blend-mode:soft-light"></polygon><polygon points="315.62 241.77 332.68 242.05 332.68 227.15 315.62 226.82 315.62 241.77" fill="#fff" opacity="0.6" style="mix-blend-mode:soft-light"></polygon><polygon points="429.61 392.85 271.38 394.98 271.38 379.9 429.61 378.23 429.61 392.85" fill="#fff" style="mix-blend-mode:soft-light"></polygon><polygon points="429.61 415.7 339.04 417.33 339.04 402.44 429.61 401.07 429.61 415.7" fill="#fff" opacity="0.6" style="mix-blend-mode:soft-light"></polygon><polygon points="315.62 417.75 332.68 417.45 332.68 402.54 315.62 402.8 315.62 417.75" fill="#fff" opacity="0.6" style="mix-blend-mode:soft-light"></polygon><polygon points="429.61 436.72 339.04 438.73 339.04 423.85 429.61 422.09 429.61 436.72" fill="#fff" opacity="0.6" style="mix-blend-mode:soft-light"></polygon><polygon points="315.62 439.25 332.68 438.88 332.68 423.97 315.62 424.3 315.62 439.25" fill="#fff" opacity="0.6" style="mix-blend-mode:soft-light"></polygon><polygon points="429.61 457.74 339.04 460.13 339.04 445.25 429.61 443.11 429.61 457.74" fill="#fff" opacity="0.6" style="mix-blend-mode:soft-light"></polygon><polygon points="315.62 460.75 332.68 460.3 332.68 445.4 315.62 445.8 315.62 460.75" fill="#fff" opacity="0.6" style="mix-blend-mode:soft-light"></polygon><polygon points="429.61 264.81 271.38 262.88 271.38 247.79 429.61 250.18 429.61 264.81" fill="#fff" style="mix-blend-mode:soft-light"></polygon><polygon points="429.61 287.65 339.04 286.97 339.04 272.08 429.61 273.03 429.61 287.65" fill="#fff" opacity="0.6" style="mix-blend-mode:soft-light"></polygon><polygon points="315.62 286.79 332.68 286.92 332.68 272.01 315.62 271.83 315.62 286.79" fill="#fff" opacity="0.6" style="mix-blend-mode:soft-light"></polygon><polygon points="429.61 308.67 339.04 308.37 339.04 293.48 429.61 294.05 429.61 308.67" fill="#fff" opacity="0.6" style="mix-blend-mode:soft-light"></polygon><polygon points="315.62 308.29 332.68 308.35 332.68 293.44 315.62 293.33 315.62 308.29" fill="#fff" opacity="0.6" style="mix-blend-mode:soft-light"></polygon><polygon points="429.61 350.99 339.04 351.45 339.04 336.56 429.61 336.37 429.61 350.99" fill="#fff" opacity="0.6" style="mix-blend-mode:soft-light"></polygon><polygon points="315.62 351.57 332.68 351.48 332.68 336.57 315.62 336.61 315.62 351.57" fill="#fff" opacity="0.6" style="mix-blend-mode:soft-light"></polygon><polygon points="429.61 372.01 339.04 372.85 339.04 357.96 429.61 357.38 429.61 372.01" fill="#fff" opacity="0.6" style="mix-blend-mode:soft-light"></polygon><polygon points="315.62 373.07 332.68 372.91 332.68 358 315.62 358.11 315.62 373.07" fill="#fff" opacity="0.6" style="mix-blend-mode:soft-light"></polygon><polygon points="429.61 329.69 339.04 329.77 339.04 314.88 429.61 315.07 429.61 329.69" fill="#fff" opacity="0.6" style="mix-blend-mode:soft-light"></polygon><polygon points="315.62 329.79 332.68 329.77 332.68 314.87 315.62 314.83 315.62 329.79" fill="#fff" opacity="0.6" style="mix-blend-mode:soft-light"></polygon><polygon points="429.61 478.75 271.38 483.61 271.38 468.52 429.61 464.13 429.61 478.75" fill="#fff" style="mix-blend-mode:soft-light"></polygon><polygon points="429.61 501.6 339.04 504.79 339.04 489.9 429.61 486.97 429.61 501.6" fill="#fff" opacity="0.6" style="mix-blend-mode:soft-light"></polygon><polygon points="315.62 505.62 332.68 505.01 332.68 490.11 315.62 490.66 315.62 505.62" fill="#fff" opacity="0.6" style="mix-blend-mode:soft-light"></polygon><polygon points="429.61 522.62 339.04 526.19 339.04 511.3 429.61 507.99 429.61 522.62" fill="#fff" opacity="0.6" style="mix-blend-mode:soft-light"></polygon><polygon points="315.62 527.12 332.68 526.44 332.68 511.54 315.62 512.16 315.62 527.12" fill="#fff" opacity="0.6" style="mix-blend-mode:soft-light"></polygon><polygon points="429.61 543.64 339.04 547.59 339.04 532.71 429.61 529.01 429.61 543.64" fill="#fff" opacity="0.6" style="mix-blend-mode:soft-light"></polygon><polygon points="315.62 548.62 332.68 547.87 332.68 532.97 315.62 533.66 315.62 548.62" fill="#fff" opacity="0.6" style="mix-blend-mode:soft-light"></polygon><polygon points="448.84 542.87 445.35 543.02 445.35 164.64 448.84 164.76 448.84 542.87" fill="#fff" opacity="0.6" style="mix-blend-mode:soft-light"></polygon><path d="M881.18,560.46c-153.63,3.21-188.18,25.15-231.83-1.14-60-36.11-32.67-100.36-91.11-134.06-73.47-42.36-158.19,35.23-196.53-2.6-38.19-37.67,34-126.34-7.81-225.17-16.76-39.66-45.3-65.42-65-80.19l-39.77-1.73c-15.26-.66-27.74,9.45-27.74,22.53V609.65c0,13.08,12.48,23,27.74,22.07l705.74-42.07a21.76,21.76,0,0,0,20.27-21.39v-7.13C954,560.38,921.22,559.62,881.18,560.46Z" fill="#fff" opacity="0.3" style="mix-blend-mode:soft-light"></path><path d="M396.38,441.28c-.05,0-.19,0-.29-.06l-.34-.07L395,441c-.47-.07-1-.12-1.44-.16a16.64,16.64,0,0,0-2.83.06,10.56,10.56,0,0,0-4.84,1.74,4.41,4.41,0,0,0-.49.36l-.47.39a11.63,11.63,0,0,0-1.57,1.85c-.21.37-.45.7-.63,1.09a18.09,18.09,0,0,0-1.64,5.09,4.19,4.19,0,1,1-8.1-2.09l0-.12a26,26,0,0,1,3.56-6.89c.38-.55.86-1,1.3-1.57a19.86,19.86,0,0,1,1.49-1.41,18.61,18.61,0,0,1,1.67-1.25l.89-.53c.3-.17.62-.31.92-.46a16.42,16.42,0,0,1,7.74-1.48,20.59,20.59,0,0,1,3.71.5c.6.15,1.19.3,1.77.49l.88.31.44.17.49.2a2.11,2.11,0,0,1-1.11,4Z" fill="url(#linear-gradient-8)"></path><path d="M450.42,384l-.27-.46c-.08-.14-.16-.27-.23-.41s-.3-.55-.43-.82c-.27-.55-.51-1.12-.74-1.69a21.21,21.21,0,0,1-1-3.59,16.5,16.5,0,0,1,.35-7.87c.11-.33.2-.67.33-1l.4-1a17.69,17.69,0,0,1,1-1.82c.36-.6.78-1.13,1.19-1.69s.88-1.05,1.36-1.5a25.82,25.82,0,0,1,6.31-4.52l.09-.05a4.2,4.2,0,0,1,3.88,7.44,4.09,4.09,0,0,1-.62.26,17.9,17.9,0,0,0-4.8,2.36c-.36.24-.65.52-1,.78s-.61.56-.86.87a11.76,11.76,0,0,0-.75,1l-.32.51c-.11.17-.18.36-.28.54a10.62,10.62,0,0,0-1,5,16,16,0,0,0,.35,2.81c.11.47.22.94.37,1.4.07.23.14.46.22.68l.12.33c0,.1.1.23.11.28l.12.43a2.1,2.1,0,0,1-1.44,2.61A2.12,2.12,0,0,1,450.42,384Z" fill="url(#linear-gradient-9)"></path><path d="M409.08,465.85l-.29.07-.34.08-.69.2c-.46.14-.92.3-1.37.48a16.1,16.1,0,0,0-2.52,1.28,10.53,10.53,0,0,0-3.61,3.67,5.61,5.61,0,0,0-.29.54l-.25.55a9,9,0,0,0-.36,1.15,10.24,10.24,0,0,0-.25,1.2c0,.43-.1.83-.09,1.26a17.77,17.77,0,0,0,.73,5.3,4.2,4.2,0,0,1-8.08,2.27,3.6,3.6,0,0,1-.12-.64l0-.12a25.72,25.72,0,0,1,.22-7.76,19.49,19.49,0,0,1,.48-2,17.41,17.41,0,0,1,.74-1.93,16,16,0,0,1,.95-1.84l.58-.87c.19-.28.42-.55.63-.82a16.46,16.46,0,0,1,6.33-4.69,19.68,19.68,0,0,1,3.56-1.15c.6-.14,1.2-.25,1.81-.34l.92-.1.47,0,.53,0a2.11,2.11,0,0,1,.75,4.12Z" fill="url(#linear-gradient-10)"></path><path d="M435.17,479.81s-.13.14-.19.22l-.23.27-.45.56c-.29.38-.56.78-.82,1.19a16.26,16.26,0,0,0-1.3,2.52,10.55,10.55,0,0,0-.78,5.08,5.77,5.77,0,0,0,.09.6l.12.6A9.67,9.67,0,0,0,432,492c.12.38.34.75.5,1.12s.4.72.67,1.07a17.64,17.64,0,0,0,3.69,3.86,4.2,4.2,0,1,1-5.22,6.57,3.27,3.27,0,0,1-.47-.44l-.09-.09a25.52,25.52,0,0,1-4.37-6.42,19.42,19.42,0,0,1-.76-1.88,18.77,18.77,0,0,1-.53-2,15.83,15.83,0,0,1-.3-2.05l-.05-1c0-.34,0-.69,0-1a16.59,16.59,0,0,1,2.38-7.52,21,21,0,0,1,2.21-3c.41-.46.83-.91,1.28-1.33.22-.22.45-.42.68-.63l.36-.31.41-.33a2.11,2.11,0,0,1,3,2.89Z" fill="url(#linear-gradient-11)"></path><path d="M469.08,397.1l-.11-.52-.09-.47c-.05-.3-.09-.61-.13-.91-.07-.61-.11-1.22-.14-1.84a21.38,21.38,0,0,1,.21-3.73,16.55,16.55,0,0,1,2.93-7.32c.21-.27.41-.56.64-.82l.69-.77a15.58,15.58,0,0,1,1.54-1.39,16,16,0,0,1,1.67-1.2,17.31,17.31,0,0,1,1.79-1,25.37,25.37,0,0,1,7.45-2.19h.1a4.19,4.19,0,1,1,1.19,8.3,3.71,3.71,0,0,1-.67.05,17.52,17.52,0,0,0-5.3.64c-.43.1-.79.27-1.19.4s-.76.33-1.1.54a10,10,0,0,0-1,.66l-.47.38c-.16.12-.29.27-.45.41a10.72,10.72,0,0,0-2.62,4.42,15.67,15.67,0,0,0-.6,2.77q-.09.72-.12,1.44c0,.24,0,.48,0,.72V396a1.53,1.53,0,0,1,0,.29l0,.45a2.11,2.11,0,0,1-4.17.32Z" fill="url(#linear-gradient-12)"></path><path d="M484.56,427l.27-.45.26-.4q.27-.39.54-.75a17.66,17.66,0,0,1,1.16-1.43,20.75,20.75,0,0,1,2.72-2.57,16.36,16.36,0,0,1,7.15-3.3c.34-.06.68-.13,1-.16l1-.09a16.05,16.05,0,0,1,2.08.05,17.55,17.55,0,0,1,2,.28,18.84,18.84,0,0,1,2,.52,25.73,25.73,0,0,1,6.91,3.53l.08.06a4.19,4.19,0,0,1-4.83,6.86,4.4,4.4,0,0,1-.52-.43,18.17,18.17,0,0,0-4.29-3.19c-.38-.21-.77-.34-1.15-.52s-.78-.28-1.17-.36a9.61,9.61,0,0,0-1.19-.23l-.61-.05c-.2,0-.4,0-.6,0a10.67,10.67,0,0,0-4.95,1.41,15.64,15.64,0,0,0-2.34,1.6c-.37.31-.73.63-1.08,1-.17.16-.34.34-.5.51l-.24.26a2.6,2.6,0,0,0-.19.22l-.33.3a2.1,2.1,0,0,1-3.24-2.63Z" fill="url(#linear-gradient-13)"></path><path d="M479.38,402.51c13.47,19.47,22.7,56.81,1.73,74.84C461.17,494.49,427,485,409.35,466.63c-22.13-23-23.68-65.3-2.7-81.88,16.19-12.79,40.26-5.92,42.51-5.25C466.86,384.82,476.15,397.85,479.38,402.51Z" fill="url(#linear-gradient-14)"></path><path d="M449.16,379.5c-2.25-.67-26.32-7.54-42.51,5.25-12,9.5-16.64,27.44-14.24,45.36a133.35,133.35,0,0,1,22.26-26.92,116.38,116.38,0,0,1,36.52-23C450.52,379.94,449.85,379.71,449.16,379.5Z" fill="url(#linear-gradient-15)"></path><path d="M419.37,381.66c-1.36-1.85-2.62-3.71-3.85-5.61s-2.41-3.82-3.55-5.78-2.23-3.94-3.27-6-2-4.07-3-6.15a82.94,82.94,0,0,1-4.58-13l-.21-.84-.19-.86c-.12-.57-.25-1.14-.36-1.71-.2-1.16-.41-2.32-.53-3.5s-.2-2.37-.28-3.56,0-2.41.09-3.62l.06-.92c0-.3.08-.61.12-.91l.13-.92c.05-.3.08-.61.16-.91l.42-1.82c.06-.32.15-.58.23-.87s.17-.57.26-.85a31.2,31.2,0,0,1,2.89-6.82,14.91,14.91,0,0,1,2.59-3.32,10,10,0,0,1,2-1.46,8,8,0,0,1,2.7-.9,7,7,0,0,1,3,.23,8.14,8.14,0,0,1,2.52,1.25,11.62,11.62,0,0,1,3.13,3.55,17,17,0,0,1,1.64,3.9,20.46,20.46,0,0,1,.72,4,20.22,20.22,0,0,1-.07,4c-.07.67-.18,1.34-.31,2l-.11.5-.11.46c-.08.31-.16.62-.25.93a18,18,0,0,1-.65,2,11,11,0,0,1-1.13,2.21c-.13.2-.3.42-.47.63l-.29.34c-.1.11-.23.23-.35.34a5.75,5.75,0,0,1-2.14,1.29,5.23,5.23,0,0,1-1.53.27,5.53,5.53,0,0,1-1.5-.16,6.25,6.25,0,0,1-2.07-1,8,8,0,0,1-1.23-1.05,10.21,10.21,0,0,1-.85-1A16.08,16.08,0,0,1,408,334.3c-.35-.6-.66-1.18-.95-1.77-.14-.3-.28-.59-.41-.89l-.2-.45-.09-.24-.11-.27v0a4.18,4.18,0,0,1,7.77-3.08c0,.09.07.2.1.29a.82.82,0,0,0,0,.11l0,.16.12.32c.08.22.17.44.26.65.18.43.37.84.56,1.22a10.06,10.06,0,0,0,.58,1c.16.25.34.43.24.36a2.06,2.06,0,0,0-.58-.22,2.42,2.42,0,0,0-1.37.06,1.84,1.84,0,0,0-.73.43l0,.05v0l0,0a3.24,3.24,0,0,0,.44-.75,12.31,12.31,0,0,0,.47-1.21c.08-.22.15-.44.22-.68l.11-.35.08-.31a11.57,11.57,0,0,0,.28-1.3,13,13,0,0,0,.2-2.65,13.3,13.3,0,0,0-.31-2.61,9.91,9.91,0,0,0-.82-2.32,5.16,5.16,0,0,0-1.14-1.56,1.7,1.7,0,0,0-.44-.29.54.54,0,0,0-.29-.07,1.06,1.06,0,0,0-.48.11,3.79,3.79,0,0,0-.74.48,8.87,8.87,0,0,0-1.62,1.88,26.09,26.09,0,0,0-2.61,5.38l-.27.75c-.08.24-.18.5-.24.73l-.41,1.43c-.08.24-.11.49-.17.73l-.14.74c-.05.25-.11.49-.14.74l-.1.76c-.15,1-.18,2-.24,3.07s0,2.09.08,3.14.18,2.1.3,3.16c.07.53.16,1.06.24,1.58l.13.8.16.79a78.58,78.58,0,0,0,3.66,12.51c.79,2,1.63,4.08,2.53,6.09s1.87,4,2.87,6,2.07,3.91,3.16,5.84,2.25,3.83,3.44,5.65l0,0a1.26,1.26,0,0,1-2.07,1.44Z" fill="url(#linear-gradient-16)"></path><path d="M395.8,403.54c-1.52-1.55-3.15-3.09-4.78-4.57s-3.32-2.94-5-4.35-3.45-2.76-5.22-4.08-3.58-2.57-5.41-3.78a77.65,77.65,0,0,0-11.43-6.27l-.73-.32-.75-.29c-.5-.2-1-.4-1.5-.58-1-.34-2-.71-3-1s-2-.51-3.05-.74-2-.36-3.05-.43l-.76-.07c-.25,0-.5,0-.75,0l-.76,0c-.25,0-.5,0-.75,0l-1.48.09c-.24,0-.51.06-.77.08l-.78.1a25.44,25.44,0,0,0-5.82,1.4,8.7,8.7,0,0,0-2.18,1.18,3.09,3.09,0,0,0-.63.62,1,1,0,0,0-.22.44.72.72,0,0,0,0,.29,2.18,2.18,0,0,0,.19.5,5.37,5.37,0,0,0,1.28,1.45,9.59,9.59,0,0,0,2.09,1.29,13,13,0,0,0,2.48.87,13.9,13.9,0,0,0,2.63.38c.45,0,.89,0,1.33,0h.33l.36,0,.71-.07a10.36,10.36,0,0,0,1.28-.21,3.54,3.54,0,0,0,.83-.26.07.07,0,0,0,0,0h0l-.06,0a1.93,1.93,0,0,0-.57.62,2.54,2.54,0,0,0-.36,1.33,1.85,1.85,0,0,0,.1.61c0,.12-.09-.1-.31-.32a9.73,9.73,0,0,0-.84-.77c-.32-.27-.69-.54-1.07-.81-.19-.13-.38-.27-.58-.39l-.29-.19-.14-.08-.1-.07a4.18,4.18,0,0,1,4.17-7.25,2,2,0,0,1,.24.16l0,0,.25.17.21.14.4.29.78.6c.51.41,1,.83,1.52,1.3a16.88,16.88,0,0,1,1.53,1.6,10.62,10.62,0,0,1,.78,1.05,8.41,8.41,0,0,1,.76,1.42,6.42,6.42,0,0,1,.49,2.24,5.61,5.61,0,0,1-.16,1.49,5.39,5.39,0,0,1-.59,1.44,6.08,6.08,0,0,1-1.72,1.82c-.14.09-.29.19-.42.26l-.39.22c-.24.11-.49.23-.71.31A11.21,11.21,0,0,1,351,393a19.48,19.48,0,0,1-2,.22l-1,0h-1c-.68,0-1.36,0-2-.12a20.62,20.62,0,0,1-4-.81,19.78,19.78,0,0,1-3.76-1.56,16.56,16.56,0,0,1-3.45-2.44,11.59,11.59,0,0,1-2.8-3.82,8.29,8.29,0,0,1-.68-2.73,7.34,7.34,0,0,1,.42-3,7.67,7.67,0,0,1,1.47-2.44,9.88,9.88,0,0,1,1.85-1.63,15.41,15.41,0,0,1,3.79-1.82,31.84,31.84,0,0,1,7.28-1.36l.89-.06c.3,0,.58-.05.9-.05l1.87,0c.31,0,.62,0,.93.05l.92.07c.3,0,.61,0,.92.08l.9.13c1.22.15,2.38.44,3.56.7s2.31.62,3.42,1,2.21.82,3.3,1.26c.54.23,1.06.48,1.59.72l.8.36.78.4a82.07,82.07,0,0,1,11.7,7.26q2.76,2,5.38,4.21t5.11,4.47c1.67,1.53,3.29,3.11,4.88,4.71s3.14,3.24,4.66,5a1.26,1.26,0,0,1-1.85,1.72Z" fill="url(#linear-gradient-17)"></path><path d="M414.67,403.19s78.57,96.57,95.85,80.91,1.27-61.8,1.27-61.8Z" fill="url(#linear-gradient-18)"></path><path d="M414.67,403.19l10.44,88.56s24.59,35.92,45.32,24.6C496.05,502.37,414.67,403.19,414.67,403.19Z" fill="url(#linear-gradient-19)"></path><path d="M414.67,403.19l109,37.36a2.79,2.79,0,0,0,3.67-3c-2-14.45-13.23-59.27-76.19-57.36C451.19,380.17,428.38,388.37,414.67,403.19Z" fill="url(#linear-gradient-20)"></path><path d="M436.21,511.53,414.67,403.19a117.43,117.43,0,0,0-22.26,26.92S367.59,478,432.09,514.5A2.79,2.79,0,0,0,436.21,511.53Z" fill="url(#linear-gradient-21)"></path><path d="M896.52,157.9v-.55l0-.61c0-.41.08-.82.14-1.22a14.57,14.57,0,0,1,.59-2.34,9.12,9.12,0,0,1,2.37-3.69c.13-.11.25-.23.39-.34l.41-.31a9.85,9.85,0,0,1,.89-.52,10.19,10.19,0,0,1,.95-.43c.35-.1.66-.24,1-.31a15.2,15.2,0,0,1,4.53-.39,3.57,3.57,0,0,0,.36-7.13,3.35,3.35,0,0,0-.55,0h-.11a22,22,0,0,0-6.4,1.64c-.52.22-1,.51-1.54.78a14.22,14.22,0,0,0-1.46,1,13.34,13.34,0,0,0-1.35,1.14l-.61.64c-.2.22-.38.45-.56.68a14.12,14.12,0,0,0-2.71,6.14,18,18,0,0,0-.28,3.17c0,.52,0,1,.07,1.56,0,.26,0,.52.08.78l.06.4.07.45a1.8,1.8,0,0,0,3.56-.15Z" fill="url(#linear-gradient-22)"></path><path d="M838.71,191.8l-.32-.31c-.1-.09-.2-.19-.3-.27l-.6-.52c-.4-.33-.83-.63-1.26-.93a16.63,16.63,0,0,0-2.78-1.54,14,14,0,0,0-6.6-1.22c-.29,0-.58,0-.87.09l-.88.14a14.3,14.3,0,0,0-1.7.48,14.11,14.11,0,0,0-1.62.66c-.51.27-1,.53-1.51.84a21.79,21.79,0,0,0-4.95,4.37l-.06.07a3.57,3.57,0,1,0,5.77,4.17,15.32,15.32,0,0,1,2.87-3.53,10.27,10.27,0,0,1,.84-.67,10,10,0,0,1,.88-.55,8,8,0,0,1,.94-.44l.48-.17.51-.13a9,9,0,0,1,4.37.12,14.4,14.4,0,0,1,2.27.82c.37.18.73.37,1.09.57l.52.32.25.16.21.14.33.19a1.8,1.8,0,0,0,2.12-2.86Z" fill="url(#linear-gradient-23)"></path><path d="M914.47,173.11l.11-.22.14-.27c.09-.18.19-.35.29-.53a12.22,12.22,0,0,1,.66-1,13.26,13.26,0,0,1,1.54-1.85,9.08,9.08,0,0,1,3.73-2.3c.17,0,.33-.1.5-.13l.51-.1a8.76,8.76,0,0,1,1-.09,9.1,9.1,0,0,1,1,0c.35.06.7.07,1.06.16a15.33,15.33,0,0,1,4.25,1.62,3.57,3.57,0,1,0,3.42-6.27,3.16,3.16,0,0,0-.5-.22l-.1,0a21.76,21.76,0,0,0-6.48-1.3,16.5,16.5,0,0,0-1.72,0,14.56,14.56,0,0,0-1.74.24,14.29,14.29,0,0,0-1.71.44l-.83.31c-.27.11-.53.24-.8.37a14,14,0,0,0-5.1,4.35,17,17,0,0,0-1.63,2.73c-.23.48-.44.95-.62,1.44-.1.25-.19.49-.27.74l-.12.39L911,172a1.8,1.8,0,0,0,3.27,1.41Z" fill="url(#linear-gradient-24)"></path><path d="M921.07,197.42l.22-.12.26-.14.55-.26c.38-.17.76-.32,1.15-.46a13.27,13.27,0,0,1,2.33-.59,8.94,8.94,0,0,1,4.37.32c.16.07.33.11.49.19l.46.21a9.94,9.94,0,0,1,.89.53c.29.18.55.43.83.64s.52.47.76.75a15.36,15.36,0,0,1,2.5,3.8,3.57,3.57,0,0,0,6.44-3.07,3.72,3.72,0,0,0-.27-.48l-.06-.09a21.6,21.6,0,0,0-4.49-4.85c-.43-.36-.94-.67-1.41-1a15.3,15.3,0,0,0-1.55-.82,13.73,13.73,0,0,0-1.65-.64l-.85-.23c-.29-.08-.58-.12-.87-.18a14.21,14.21,0,0,0-6.68.54,18.63,18.63,0,0,0-2.92,1.26c-.46.25-.91.52-1.35.8l-.65.45-.32.24-.36.28a1.8,1.8,0,0,0,1.83,3.06Z" fill="url(#linear-gradient-25)"></path><path d="M846,209.77l-.4-.19-.37-.16-.74-.28c-.49-.18-1-.33-1.5-.47a17.8,17.8,0,0,0-3.13-.54,14,14,0,0,0-6.63,1c-.26.12-.54.23-.8.37l-.77.42a15,15,0,0,0-1.45,1,16.45,16.45,0,0,0-1.32,1.17c-.38.42-.8.84-1.14,1.29a21.7,21.7,0,0,0-3.23,5.76l0,.08a3.57,3.57,0,1,0,6.66,2.58,5.7,5.7,0,0,0,.16-.55,15.41,15.41,0,0,1,1.54-4.28c.17-.33.38-.6.57-.91a7.29,7.29,0,0,1,.66-.81,9.93,9.93,0,0,1,.73-.72l.41-.32c.13-.11.28-.19.42-.29a9.1,9.1,0,0,1,4.17-1.34,13.88,13.88,0,0,1,2.41,0c.41.05.82.1,1.22.18l.6.13.29.07.24.06.38.07a1.79,1.79,0,0,0,1-3.4Z" fill="url(#linear-gradient-26)"></path><path d="M867.86,228.31l-.43.14-.37.14-.73.3q-.72.31-1.41.69a17.47,17.47,0,0,0-2.65,1.77,13.94,13.94,0,0,0-4.1,5.3c-.11.28-.23.54-.33.82l-.27.84a14.73,14.73,0,0,0-.51,3.48,16.67,16.67,0,0,0,.06,1.73,21.57,21.57,0,0,0,1.61,6.4l0,.08a3.57,3.57,0,0,0,6.61-2.7,2.71,2.71,0,0,0-.26-.51,15.52,15.52,0,0,1-1.82-4.17,9.75,9.75,0,0,1-.21-1.05,9.1,9.1,0,0,1-.08-1c0-.35,0-.69,0-1l.08-.51c0-.17.08-.34.11-.51a9,9,0,0,1,2.11-3.83A13.81,13.81,0,0,1,867.1,233c.33-.25.66-.49,1-.71l.52-.32.26-.14.22-.12.32-.21a1.8,1.8,0,0,0-1.57-3.2Z" fill="url(#linear-gradient-27)"></path><path d="M848.53,219.34c13.58,14.89,42.79,29.66,61.74,15.71,18-13.27,16.64-43.39,4.79-61.56-14.84-22.74-49.64-32.09-67.4-17.85-13.69,11-12.58,32.26-12.45,34.25C836.25,205.59,845.28,215.78,848.53,219.34Z" fill="url(#linear-gradient-28)"></path><path d="M835.21,189.89c-.13-2-1.24-23.27,12.45-34.25,10.18-8.16,25.94-8.57,40.34-3.16a113.5,113.5,0,0,0-26.57,13.33,99.2,99.2,0,0,0-26.06,25.89C835.31,191.11,835.25,190.5,835.21,189.89Z" fill="url(#linear-gradient-29)"></path><path d="M842.68,165.6c-1.28-1.49-2.58-2.88-3.92-4.27s-2.71-2.73-4.12-4-2.84-2.6-4.31-3.85-3-2.45-4.54-3.63a70.52,70.52,0,0,0-9.9-6.27l-.66-.34-.68-.32c-.45-.21-.89-.43-1.35-.63-.92-.38-1.84-.78-2.8-1.1s-1.92-.62-2.9-.91-2-.48-3-.62l-.77-.12c-.25,0-.52-.05-.78-.08l-.78-.06a7,7,0,0,0-.79-.05h-1.59c-.27,0-.51,0-.77,0l-.75,0a26.36,26.36,0,0,0-6.21,1.1A12.59,12.59,0,0,0,788.8,142a7.68,7.68,0,0,0-1.59,1.37,6.71,6.71,0,0,0-1.27,2.06,6,6,0,0,0-.38,2.55,7.11,7.11,0,0,0,.55,2.33,9.84,9.84,0,0,0,2.36,3.27,14.16,14.16,0,0,0,2.91,2.11,16.81,16.81,0,0,0,3.19,1.36,18.28,18.28,0,0,0,3.36.72,16.56,16.56,0,0,0,1.73.11h.84l.81,0c.56,0,1.13-.08,1.75-.17a9.84,9.84,0,0,0,2.05-.51c.19-.07.4-.17.61-.27l.34-.18.35-.22a5.05,5.05,0,0,0,1.48-1.53,4.7,4.7,0,0,0,.51-1.22,4.8,4.8,0,0,0,.16-1.27,5.32,5.32,0,0,0-.41-1.91,6.57,6.57,0,0,0-.63-1.22c-.22-.33-.44-.62-.65-.89a17.65,17.65,0,0,0-1.29-1.38c-.43-.4-.86-.77-1.29-1.12l-.66-.51-.34-.25-.18-.13-.2-.14,0,0a3.56,3.56,0,0,0-4,5.86l.22.14a.43.43,0,0,1,.09.06l.12.07.24.16.49.34c.32.23.63.47.91.7s.52.47.71.66.29.37.25.27a1.72,1.72,0,0,1-.07-.52,2,2,0,0,1,.07-.56,2.22,2.22,0,0,1,.24-.57,1.64,1.64,0,0,1,.49-.51l0,0h0l0,0a3.17,3.17,0,0,1-.7.21,10.42,10.42,0,0,1-1.09.17l-.61,0-.31,0h-.28c-.37,0-.75,0-1.13,0a11.26,11.26,0,0,1-2.23-.35,11.48,11.48,0,0,1-2.11-.75,8.62,8.62,0,0,1-1.77-1.12,4.4,4.4,0,0,1-1.07-1.25,1.42,1.42,0,0,1-.16-.42.53.53,0,0,1,0-.25,1,1,0,0,1,.19-.38,3.4,3.4,0,0,1,.54-.52,7.25,7.25,0,0,1,1.87-1,21.32,21.32,0,0,1,5-1.14l.67-.08c.22,0,.45-.06.66-.07l1.26-.06a4.56,4.56,0,0,1,.64,0l.64,0c.21,0,.42,0,.64,0l.64.07a25.9,25.9,0,0,1,2.6.39c.86.21,1.73.38,2.58.66s1.72.55,2.57.85l1.27.51.63.25.63.28a67.36,67.36,0,0,1,9.67,5.43c1.55,1,3.08,2.13,4.57,3.26s3,2.31,4.41,3.52,2.85,2.45,4.23,3.73,2.75,2.6,4,3.93v0a1.07,1.07,0,0,0,1.59-1.44Z" fill="url(#linear-gradient-30)"></path><path d="M865.32,150.22c-1-1.56-2-3.2-2.88-4.84s-1.8-3.31-2.64-5-1.64-3.39-2.4-5.1-1.45-3.46-2.1-5.21a65.83,65.83,0,0,1-3-10.67l-.13-.68-.1-.67c-.06-.45-.14-.9-.19-1.35-.09-.9-.21-1.8-.23-2.7s0-1.78,0-2.67.09-1.75.23-2.61l.08-.64c0-.22.09-.42.13-.63l.13-.63a4.31,4.31,0,0,1,.15-.62l.36-1.21c.05-.2.14-.42.21-.63s.15-.42.23-.63a22.05,22.05,0,0,1,2.27-4.56,7.14,7.14,0,0,1,1.4-1.58,2.48,2.48,0,0,1,.63-.4,1,1,0,0,1,.4-.1.57.57,0,0,1,.25.06,1.7,1.7,0,0,1,.37.26,4.11,4.11,0,0,1,1,1.33,8.39,8.39,0,0,1,.68,2,11.71,11.71,0,0,1,.24,2.23,12.13,12.13,0,0,1-.18,2.25c-.07.37-.15.74-.25,1.1l-.08.27-.09.3c-.06.2-.13.38-.2.57a10.52,10.52,0,0,1-.41,1,3.12,3.12,0,0,1-.37.63l0,0a0,0,0,0,1,0,0l0-.05a1.73,1.73,0,0,1,.62-.35,2.08,2.08,0,0,1,1.17,0,1.89,1.89,0,0,1,.49.2c.09.06-.06-.09-.2-.31a7.59,7.59,0,0,1-.48-.84c-.16-.33-.32-.68-.47-1-.08-.18-.15-.37-.22-.55l-.09-.28,0-.13,0-.1a3.56,3.56,0,1,0-6.81,2.08c0,.07.05.15.08.23l0,0,.09.24.08.2.16.39c.11.25.23.5.35.76.24.5.49,1,.79,1.51a15.06,15.06,0,0,0,1,1.58,10.16,10.16,0,0,0,.72.84,7,7,0,0,0,1,.9,5.25,5.25,0,0,0,1.76.84,5.06,5.06,0,0,0,1.26.15,4.73,4.73,0,0,0,1.31-.22,5.2,5.2,0,0,0,1.84-1.08l.29-.29.26-.29a6.14,6.14,0,0,0,.4-.53,10.33,10.33,0,0,0,1-1.87,17.27,17.27,0,0,0,.57-1.66c.08-.27.15-.53.22-.79l.09-.39.1-.42c.12-.57.22-1.14.29-1.71a18.82,18.82,0,0,0,.09-3.44,17.38,17.38,0,0,0-.58-3.41,14.19,14.19,0,0,0-1.37-3.33,9.83,9.83,0,0,0-2.64-3.05,6.79,6.79,0,0,0-2.13-1.09,6.18,6.18,0,0,0-2.57-.22,6.63,6.63,0,0,0-2.3.75,8,8,0,0,0-1.7,1.23,12.93,12.93,0,0,0-2.24,2.8,26.8,26.8,0,0,0-2.51,5.77c-.08.25-.16.49-.23.73s-.15.47-.21.74l-.37,1.54a7,7,0,0,0-.13.78l-.12.78c0,.26-.09.52-.11.77l-.06.78c-.11,1-.1,2.06-.11,3.09s.08,2,.21,3,.27,2,.42,3c.09.5.2,1,.29,1.47l.16.73.17.72a71,71,0,0,0,3.79,11.09q1.17,2.67,2.47,5.26t2.74,5.09q1.42,2.52,3,4.95c1,1.63,2.08,3.22,3.23,4.81a1.07,1.07,0,0,0,1.77-1.21Z" fill="url(#linear-gradient-31)"></path><path d="M861.43,165.81s65.11,83.58,48.83,94.92S858.76,250,858.76,250Z" fill="url(#linear-gradient-32)"></path><path d="M861.19,166.75l71.7,24.6s25.44,27.55,11.77,42.28S861.19,166.75,861.19,166.75Z" fill="url(#linear-gradient-33)"></path><path d="M861.43,165.81l10.2,97.56a2.37,2.37,0,0,1-3.21,2.46c-11.6-4.4-46.64-22.27-33-74.13C835.37,191.7,846.53,174.35,861.43,165.81Z" fill="url(#linear-gradient-34)"></path><path d="M947.18,204.33l-85.75-38.52A100.12,100.12,0,0,1,888,152.48s44.44-11.46,62.43,49A2.38,2.38,0,0,1,947.18,204.33Z" fill="url(#linear-gradient-35)"></path><path d="M201.09,749.91s25.36,11.6,25.77,13.44-16.32-.66-23.16-.41-12.45-1.78-11.82-4.67,3-10.17,3-10.17Z" fill="url(#linear-gradient-36)"></path><path d="M202.05,740.55,200.47,752s-4,1.42-6.71-.27l-1.13-12.54Z" fill="url(#linear-gradient-37)"></path><path d="M82.48,740.53l-3,4.74a5.66,5.66,0,0,0-.69,4.43c1,3.94,3.07,11.63,4,13.64,1.22,2.73,17.65,4.39,17.65,4.39s1.47-2.06-1.94-4.56-5.59-2.89-6.79-6.57-2-14.07-2-14.07Z" fill="url(#linear-gradient-38)"></path><path d="M94.8,728.52c-1.08.85-6.39,16.86-6.39,16.86s-1.72,2.18-5-1S82,742.88,82,742.88l.65-15.76Z" fill="url(#linear-gradient-39)"></path><path d="M216.57,510.93c1.25,34.1,1.22,71.15-.84,110.72-2.31,44.56-6.85,85.74-12.54,123.06-2.08.06-4.26.07-6.54,0-1.55-.05-3-.13-4.48-.23a283.67,283.67,0,0,1-9.34-30.11,288.76,288.76,0,0,1-6.48-35.24c-4.8-38.63.94-42-3-70.62-3.45-25.35-8.45-26.36-14.23-62.36-6.27-39.06-1.51-44.91.8-47C169.79,490.14,192.81,496.33,216.57,510.93Z" fill="url(#linear-gradient-40)"></path><path d="M160,499.13c9.37-8.57,30.76-3.32,53.32,9.85-26.06,28-28.94,46.24-25.85,58.07,3.49,13.37,14.19,17.25,14.11,31.86-.09,18-16.31,22.67-16,41.67.2,12.56,7.32,12.45,9,28,1.95,18.37-7.37,24.67-4.39,38.26,1.28,5.85,5,13.5,15.48,21.39-.77,5.58-1.56,11.1-2.39,16.51-2.08.06-4.26.07-6.54,0-1.55-.05-3-.13-4.48-.23a283.67,283.67,0,0,1-9.34-30.11,288.76,288.76,0,0,1-6.48-35.24c-4.8-38.63.94-42-3-70.62-3.45-25.35-8.45-26.36-14.23-62.36C152.89,507.08,157.65,501.24,160,499.13Z" opacity="0.3" fill="url(#linear-gradient-41)" style="mix-blend-mode:multiply"></path><path d="M200.46,510.32A765.8,765.8,0,0,0,95,734.72a13.73,13.73,0,0,1-7.49,1.15A14,14,0,0,1,79,731.26a220.4,220.4,0,0,1-1.82-54.38A187.5,187.5,0,0,1,84.92,636c6.22-19.92,10.48-21,18.59-42.1,8.42-21.87,6.41-27.34,14.49-54.71a360.12,360.12,0,0,1,18-48Z" fill="url(#linear-gradient-42)"></path><path d="M291.72,464.18c-.22,8-13.29,15-23.82,17.11-24.62,5-53.17-12.86-66.72-32.65-2.66-3.88-5.61-8.6-6.33-8.23-1.61.82,13.2,25.14,19.61,52.8,3.29,14.15,2.43,20.78,8.56,30.2,1.39,2.13,3.11,4.35,2.51,6.88-1.51,6.32-16,8-26,9.1-10.59,1.2-20.47,1.09-30.23.94-15.63-.22-16.86-1-20.42.72-10.87,5.33-10.14,18.11-18.32,19.82-6.87,1.43-13.83-6.24-16-8.68-11.49-12.64-10.87-27.88-12.91-43.25C96.88,473.2,77.46,434,58.46,409.25c-5.76-7.52-9.76-11.47-10-18.46-.74-20.51,31.75-43.15,58.81-45.75,7.41-.71,20.69-.49,33.14.69,5,.46,10.27,1.15,16,2.15,13.81,2.42,23.42,4.1,33.22,8.58,39.49,18.07,30.87,58.3,73.62,86.11C277.9,452.14,291.94,455.85,291.72,464.18Z" fill="url(#linear-gradient-43)"></path><path d="M129.88,323.76s-1.7,9.47-5.6,16.21c-3.53,6.09-18.12,8.27-21.16,9.33s4.58,6.36,12.69,8.28,31.84,3.17,36.48.62-3-3.33-8.6-6.27S136.25,337.07,138,332,129.88,323.76,129.88,323.76Z" fill="#fff"></path><path d="M145.3,321c5.88-4.2,7.51-15.58,4.24-18.13-.93-.73-1.82-.39-15.1,4.93-6.6,2.65-9.84,4.06-10.91,7a9.25,9.25,0,0,0,.17,6.07,23.27,23.27,0,0,0,2.7,4.5c1.43,2.06,1.33,2,1.77,2.58a32.32,32.32,0,0,0,6.79,6.65,23.3,23.3,0,0,1,1.08-3.76,19.6,19.6,0,0,1,2.41-4.47C140.76,323.27,143.39,322.39,145.3,321Z" fill="url(#linear-gradient-44)"></path><path d="M130.21,331.84a12.24,12.24,0,0,0,11,5c6.38-.7,6.69-15.1,2.47-18a8.09,8.09,0,0,0-6.36-.54c-1.29.43-1.71,1-3.85,1.64-2,.61-2.53.41-3.11.94s-1.21,2.24.23,6.39c-1.28-1.19-2.76-1.6-3.78-1.06a2.15,2.15,0,0,0-.82.87C125.16,328.74,126.75,330.77,130.21,331.84Z" fill="#fff"></path><path d="M257.18,463c-17.85-4-25-3.89-33.79-11-14.7-11.84-16.91-29.86-25.45-29.64-4,.1-7.31,4.23-9.64,8.26l6.45,10.1a.29.29,0,0,1,.1-.26c.72-.37,3.67,4.35,6.33,8.23,13.55,19.79,42.1,37.68,66.72,32.65,7.05-1.44,15.24-5.07,20-9.7A304.69,304.69,0,0,0,257.18,463Z" opacity="0.3" fill="url(#linear-gradient-45)" style="mix-blend-mode:multiply"></path><path d="M286.25,478.31s10.08-1,16.08-3.57,9.88,1.12,9.33,3.67-10.43,6.1-14.38,6.23S286.25,478.31,286.25,478.31Z" fill="url(#linear-gradient-46)"></path><path d="M69.32,531.58c-10.82,1-35.16,1.41-52.38-14.52-28.66-26.52-14.44-77-4.46-98.7,11.44-24.88,29.64-38.82,40.71-47.28,13.72-10.5,22.1-16.92,32.18-15.48,26.07,3.71,44.13,57.14,29.82,72.44-4.69,5-9.33,2.17-22.89,6.49-4.41,1.41-37.37,11.9-43.11,36.18-4,17,6.21,36.88,24.41,50.24Q71.46,526.26,69.32,531.58Z" fill="url(#linear-gradient-47)"></path><path d="M190.54,522.78c-12.25-7.73-14.06-15.58-27.77-20.87-17.81-6.89-26.37,1.86-35.2-5.2-10.51-8.41-1.2-23-9.07-48.44C117.17,444,107,411.21,83.77,407c-10.85-2-25.18,2.21-30.7,11.4-4.32,7.19-.29,12.56-5.55,20.5s-11.52,6-18.22,12.61c-10.62,10.51-12.25,32.68-2.66,45.21,4.48,5.85,10.29,8.16,21.23,12.51a103.06,103.06,0,0,0,18.25,5.36c-13.4-12.86-20.35-29.44-16.93-43.92,3.58-15.13,17.73-24.91,29-30.47,11.24,21.14,20.41,45.63,23.47,68.7,2,15.37,1.42,30.61,12.91,43.25,2.21,2.44,9.17,10.11,16,8.68,8.18-1.71,7.45-14.49,18.32-19.82,3.56-1.76,4.79-.94,20.42-.72,9.76.15,19.64.26,30.23-.94,8.92-1,21.32-2.43,25-7.18C208.45,531.77,197.7,527.31,190.54,522.78Z" opacity="0.3" fill="url(#linear-gradient-48)" style="mix-blend-mode:multiply"></path><path d="M76.42,540.08l-1.26-3.7a11,11,0,0,1,7.37-14.06l238.32-72.6,7.26,24.61L91,547.37A11.77,11.77,0,0,1,76.42,540.08Z" fill="url(#linear-gradient-49)"></path><path d="M469,548.35c-68.27,22.13-141.44-16.56-162.77-88.28C284.35,386.62,325.52,308.71,397.43,288c70.61-20.33,142,23.05,160.23,95C575.47,453.38,536.07,526.6,469,548.35Zm-5.51-20.05c56.66-18.2,89.86-80,74.66-139.28-15.51-60.44-75.59-96.55-134.74-79.34-60,17.46-94.5,82.57-76.44,144C344.64,514,406,546.77,463.46,528.3Z" fill="url(#linear-gradient-50)"></path><path d="M320.85,449.72,290.46,459c-2.08,9.69-6.14,15.24-10.22,18.62-15.35,12.73-35.84-1.15-64.43,13.77-14.35,7.48-11.63,12.25-25.08,17.47-22.23,8.64-32.41-3.32-52.08,4.54-19.91,8-21.87,25.13-33.16,24.51-4.83-.26-11-3.77-18-17.09l-5,1.52a11,11,0,0,0-7.37,14.06l1.26,3.7A11.77,11.77,0,0,0,91,547.37l237.11-73Z" fill="#d8dee8" opacity="0.3" style="mix-blend-mode:multiply"></path><path d="M473.59,554.52C405.31,576.65,332.15,538,310.81,466.24,289,392.79,330.13,314.88,402,294.17c70.62-20.33,142,23.05,160.24,95C580.09,459.56,540.68,532.78,473.59,554.52Zm-5.51-20c56.65-18.2,89.86-80,74.65-139.27-15.5-60.44-75.59-96.56-134.73-79.35-60.05,17.47-94.5,82.57-76.44,144C349.26,520.14,410.59,552.94,468.08,534.47Z" fill="url(#linear-gradient-51)"></path><path d="M471.64,547.45C407.18,568.28,338.2,531.66,318.16,464c-20.49-69.2,18.3-142.57,86-162.13,66.54-19.23,134,21.56,151.22,89.46C572.28,457.77,535.06,527,471.64,547.45Zm-3.56-13c56.65-18.2,89.86-80,74.65-139.27-15.5-60.44-75.59-96.56-134.73-79.35-60.05,17.47-94.5,82.57-76.44,144C349.26,520.14,410.59,552.94,468.08,534.47Z" fill="url(#linear-gradient-52)"></path><path d="M70.24,529.3l2.41-6a12.27,12.27,0,0,0,7.15-2.08,9.33,9.33,0,0,1,5.79-1.38c.9.25,4.33.1.43,2s-3.88,3.25-2.25,4.78,7.82,4.81,10,5-1.8,3.61-4,4a13.89,13.89,0,0,1-10.49-1.69C77.61,533,70.24,529.3,70.24,529.3Z" fill="#fff"></path><path d="M1067.35,91.38,716.18,79.76a20.92,20.92,0,0,0-21.57,20.85L690,452.78c-.16,12.47,9.51,22.19,21.55,21.69l359.72-14.82c10.42-.43,18.73-10.13,18.59-21.66L1086,112C1085.88,100.93,1077.54,91.72,1067.35,91.38Z" fill="url(#linear-gradient-53)"></path><path d="M711.63,467.28c-8.19.33-14.76-6.29-14.65-14.76l4.45-351.71a14.25,14.25,0,0,1,14.67-14.2l351.32,11.17c6.94.22,12.63,6.5,12.71,14l3.73,326.4c.09,7.86-5.57,14.46-12.67,14.74Z" fill="#fff" opacity="0.74" style="mix-blend-mode:soft-light"></path><path d="M1067.35,91.38,716.18,79.76a20.92,20.92,0,0,0-21.57,20.85l-.21,15.5,391.78,10.24L1086,112C1085.88,100.93,1077.54,91.72,1067.35,91.38Z" fill="url(#linear-gradient-54)"></path><path d="M732.54,99.64a6.82,6.82,0,0,1-7,6.82,7.14,7.14,0,0,1-6.86-7.23,6.83,6.83,0,0,1,7-6.82A7.14,7.14,0,0,1,732.54,99.64Z" fill="#fff"></path><path d="M756.68,100.35a6.76,6.76,0,0,1-6.92,6.79,7.1,7.1,0,0,1-6.8-7.2,6.76,6.76,0,0,1,6.94-6.78A7.09,7.09,0,0,1,756.68,100.35Z" fill="#fff"></path><path d="M780.6,101.05a6.69,6.69,0,0,1-6.84,6.76,7.05,7.05,0,0,1-6.75-7.16,6.71,6.71,0,0,1,6.86-6.76A7.06,7.06,0,0,1,780.6,101.05Z" fill="#fff"></path><polygon points="904.94 159.53 718.83 156.05 718.7 167.11 904.94 170.21 904.94 159.53" fill="#fff"></polygon><polygon points="1045.24 162.16 1045.34 172.55 1065.12 172.88 1065.01 162.53 1045.24 162.16" fill="#fff"></polygon><g style="mix-blend-mode:soft-light"><polygon points="757.79 194.27 718.39 193.81 718.52 182.37 757.89 182.91 757.79 194.27" fill="#fff"></polygon><polygon points="968.66 196.72 782.95 194.56 783.03 183.25 968.61 185.81 968.66 196.72" fill="#fff"></polygon><polygon points="821.3 214.22 782.81 213.91 782.89 202.58 821.36 202.97 821.3 214.22" fill="#fff"></polygon><polygon points="1027.45 215.85 845.89 214.41 845.93 203.22 1027.37 205.05 1027.45 215.85" fill="#fff"></polygon><polygon points="821.2 233.48 782.66 233.31 782.75 221.95 821.26 222.2 821.2 233.48" fill="#fff"></polygon><polygon points="1027.6 234.35 845.82 233.58 845.86 222.36 1027.52 223.52 1027.6 234.35" fill="#fff"></polygon><polygon points="757.26 252.75 717.72 252.73 717.85 241.2 757.36 241.3 757.26 252.75" fill="#fff"></polygon><polygon points="968.9 252.86 782.52 252.76 782.6 241.37 968.85 241.87 968.9 252.86" fill="#fff"></polygon><polygon points="821.01 272.13 782.37 272.26 782.46 260.84 821.07 260.8 821.01 272.13" fill="#fff"></polygon><polygon points="1027.9 271.47 845.69 272.06 845.73 260.77 1027.81 260.59 1027.9 271.47" fill="#fff"></polygon><polygon points="820.91 291.54 782.23 291.8 782.31 280.36 820.97 280.17 820.91 291.54" fill="#fff"></polygon><polygon points="1028.05 290.1 845.62 291.36 845.66 280.06 1027.96 279.19 1028.05 290.1" fill="#fff"></polygon><polygon points="820.82 310.98 782.08 311.39 782.17 299.92 820.87 299.59 820.82 310.98" fill="#fff"></polygon><polygon points="1028.2 308.77 845.56 310.72 845.6 299.38 1028.11 297.83 1028.2 308.77" fill="#fff"></polygon><polygon points="883.93 329.56 846.09 330.11 846.13 318.75 883.94 318.29 883.93 329.56" fill="#fff"></polygon><polygon points="1056.76 327.07 908.11 329.22 908.1 317.99 1056.65 316.18 1056.76 327.07" fill="#fff"></polygon><polygon points="756.37 351.19 716.57 351.91 716.71 340.23 756.48 339.6 756.37 351.19" fill="#fff"></polygon><polygon points="969.31 347.32 781.79 350.72 781.88 339.19 969.26 336.2 969.31 347.32" fill="#fff"></polygon><polygon points="820.52 369.61 781.64 370.46 781.73 358.9 820.58 358.13 820.52 369.61" fill="#fff"></polygon><polygon points="1028.65 365.05 845.36 369.06 845.39 357.64 1028.56 354.03 1028.65 365.05" fill="#fff"></polygon><polygon points="820.42 389.25 781.5 390.25 781.58 378.66 820.48 377.74 820.42 389.25" fill="#fff"></polygon><polygon points="1028.8 383.89 845.29 388.61 845.33 377.16 1028.71 372.85 1028.8 383.89" fill="#fff"></polygon><polygon points="755.83 410.83 715.88 412.01 716.01 400.25 755.94 399.16 755.83 410.83" fill="#fff"></polygon><polygon points="969.55 404.53 781.35 410.08 781.43 398.46 969.51 393.34 969.55 404.53" fill="#fff"></polygon><polygon points="820.23 428.67 781.2 429.97 781.29 418.32 820.28 417.11 820.23 428.67" fill="#fff"></polygon><polygon points="1029.1 421.72 845.15 427.84 845.19 416.34 1029.02 410.63 1029.1 421.72" fill="#fff"></polygon></g><g opacity="0.5" style="mix-blend-mode:soft-light"><path d="M930.84,225c-41.35-60.91-112.76-41.65-157.35-108.5a144.54,144.54,0,0,1-17-35.39l-40.26-1.33a20.92,20.92,0,0,0-21.57,20.85L690,452.78c-.16,12.47,9.51,22.19,21.55,21.69l346.53-14.28c-8.07-11.81-77.47-55.49-95.54-121.85C946.14,278.14,956,262,930.84,225Z" fill="#fff"></path></g><path d="M1093.67,161.87c0-23.83-22-42.42-48.15-41.57-14.91.48-27.88,7.2-36,17.12h0l-.15.19c-.14.17-.27.35-.41.53l-.73,1c-.15.2-.29.39-.42.59s-.46.65-.68,1l-.38.57c-.25.39-.48.77-.72,1.16-.08.15-.17.29-.25.43-.31.53-.6,1.06-.89,1.61l-.21.43q-.32.62-.6,1.23l-.27.61c-.16.37-.32.74-.47,1.11-.09.21-.17.43-.26.65l-.42,1.15-.21.6c-.16.49-.3,1-.44,1.47,0,.1-.07.2-.1.31-.16.59-.31,1.19-.44,1.79,0,.18-.08.36-.11.54-.09.43-.18.87-.25,1.3,0,.23-.08.45-.11.67-.06.41-.12.82-.17,1.22,0,.23-.05.46-.08.69,0,.43-.07.87-.1,1.3,0,.2,0,.4,0,.61,0,.63-.06,1.27-.06,1.91,0,15.29,9.26,28.77,23.14,36,1.28.66,2.6,1.27,4,1.83.68.27,1.36.54,2.06.79a51.45,51.45,0,0,0,15.8,3h0c.77,0,1.53,0,2.3,0l.77,0c.5,0,1,0,1.51-.06l.91-.07,1.34-.11,1-.12,1.26-.16,1-.16c.4-.06.81-.13,1.21-.21l1-.2,1.16-.26,1-.25,1.14-.31,1-.28.37-.11h0C1080.52,195.61,1093.67,180.23,1093.67,161.87Z" fill="url(#linear-gradient-55)"></path><path d="M1090.07,161.87c0,23.77-21.86,42.39-47.91,41.63-25.07-.73-44.72-19.29-44.72-41.47s19.65-40.81,44.72-41.62C1068.21,119.56,1090.07,138.11,1090.07,161.87Z" fill="url(#linear-gradient-56)"></path><path d="M1030.41,173.38l-18.59-9.46v-3l18.59-10.76v5.18l-12.86,6.87,12.86,6.06Z" fill="#fff"></path><path d="M1050.19,145.91l-10.57,32-5.31-.05L1044.8,146Z" fill="#fff"></path><path d="M1054.12,168.29l13.59-6.2-13.59-7v-5.28l19.82,10.86v3.19l-19.82,9.64Z" fill="#fff"></path><g opacity="0.3" style="mix-blend-mode:multiply"><path d="M1053.49,193.16c-5.65-12.44.06-23.94-7.57-31.92s-17.49-.52-27.91-6.94c-4-2.45-8.39-7.14-11.65-16.82A38.72,38.72,0,0,0,997.44,162c0,22.18,19.65,40.74,44.72,41.47a51.28,51.28,0,0,0,16.82-2.3A28.59,28.59,0,0,1,1053.49,193.16Z" fill="url(#linear-gradient-57)"></path></g><path d="M907.1,332.27A19.94,19.94,0,0,0,910.35,322c.25-9.52-6.8-16.94-7.75-16.51-.51.23.13,3,.5,4.25.75,2.58,1.57,2.82,1.5,4-.14,2.44-3.65,2.53-5.5,5.76a8.68,8.68,0,0,0,0,8.25C901.49,332.12,906.87,332.27,907.1,332.27Z" fill="url(#linear-gradient-58)"></path><polygon points="1057.83 538.92 1055.12 529.59 1066.44 521.2 1073.5 518.56 1069.32 531.62 1057.83 538.92" fill="url(#linear-gradient-59)"></polygon><path d="M1043.82,726.89s6.19,15.58,4.56,22.49a70.16,70.16,0,0,0,10.95-1s-2.67-7.11-3.19-10.63a103.18,103.18,0,0,1-.65-12.45Z" fill="url(#linear-gradient-60)"></path><path d="M975.55,763.34a4.87,4.87,0,0,1,1.17,2.86,4.8,4.8,0,0,1-.35,1.92c-1.06,2.77-2.72,3.14-4.51,6.09-1.09,1.8-.89,2.34-1.89,3.16a6.6,6.6,0,0,1-4.3,1.15,77.17,77.17,0,0,1-9.95-.57q3.33-4.29,7.1-8.71,1.65-1.93,3.3-3.77l6.54-2.21Z" fill="#26264f"></path><path d="M970.11,731.61s-3.73,19.49,1,24.95c4,5.45-2,1.56-2,1.56L962,764.38l-4.3,7.43s4-19.08,2.9-26.65S959,732.49,959,732.49Z" fill="url(#linear-gradient-61)"></path><path d="M956,518.4s-10,9-10,46,4.75,117.26,4.75,117.26l7.61,57.47s7.89.28,13.17-1.3c4.75-21.66,12.5-58.29,8.8-88.92-1.58-33.28,13.21-75,13.21-75s12.67,42.25,21.65,63.38,26.08,87.31,27.66,92.07c10.51,1,15-1.83,15-1.83s-6.73-71.23-13.07-98.16-5.81-91.91-16.37-110.39C1004.62,509.42,956,518.4,956,518.4Z" fill="url(#linear-gradient-62)"></path><path d="M956,518.4s-10,9-10,46,4.75,117.26,4.75,117.26l7.61,57.47s7.89.28,13.17-1.3c4.75-21.66,12.5-58.29,8.8-88.92-1.58-33.28,13.21-75,13.21-75s12.67,42.25,21.65,63.38,26.08,87.31,27.66,92.07c10.51,1,15-1.83,15-1.83s-6.73-71.23-13.07-98.16-5.81-91.91-16.37-110.39C1004.62,509.42,956,518.4,956,518.4Z" fill="url(#linear-gradient-63)"></path><path d="M1008.16,586.14c3.13,20.34,9.39,31.3,25,45.38,12.52,9.38,3.13,29.73,7.82,45.37,1.57,4.69,6.26,9.39,7.83,14.08,5.82,11.65.38,25.89,3,38.22a16.78,16.78,0,0,0,6-1.71s-6.73-71.23-13.07-98.16-5.81-91.91-16.37-110.39c-23.77-9.51-72.36-.53-72.36-.53s-10,9-10,46c0,3,0,6.29.09,9.79,10.42,9.22,31.73,11.27,44.87,1.05a6.31,6.31,0,0,1,2.51-1.14l.07-.19.05.18C999.56,573,1006.8,580.72,1008.16,586.14Z" opacity="0.25" fill="url(#linear-gradient-64)" style="mix-blend-mode:multiply"></path><path d="M1046.75,755.3s-1.54,0-1.41,2-.7,8.85,7.15,9.17,9-.55,9.31-.55-2.06-6.56-2.06-6.56l-2.5-3.22-6.76-.7Z" fill="#26264f"></path><path d="M1064.15,762.18a24.75,24.75,0,0,0-2-6.36c-1.38-3.12-.24-4.28-1.57-7.12a8.56,8.56,0,0,0-1.87-2.84,8.13,8.13,0,0,0-5.54-2.11,5.63,5.63,0,0,0-2.61.61,6.15,6.15,0,0,0-2.34,2.48c-.82,1.35-.63,1.76-1.89,5.61a12.43,12.43,0,0,0-.5,1.91,15.51,15.51,0,0,0-.21,1.71c2.06,0,10,.32,11.65,1.54a6.55,6.55,0,0,1,2.5,5.34c0,2.06,1,3,2.06,3A3.38,3.38,0,0,0,1064.15,762.18Z" fill="#444b8c"></path><path d="M969.11,753.82c1.77,0,3.06,1.43,4,4.82s5.67,6.39.2,5.67-9.46,7-11.41,9.91-7.21,5.42-7.08,2.62,2.45-4.12,3.1-7S965.08,753.75,969.11,753.82Z" fill="#444b8c"></path><path d="M1062,522.86c1.3-3.61,9.41-27.34-3.7-49-10.73-17.71-29.3-23.49-32-24.28-16.11-4.76-24.19,1.36-29.28-4.27-8.62-9.55,1.15-42.08,20.06-48.59,21.31-7.35,46.88,20.89,57.24,39.44,13.59,24.34,10.25,48.53,9.46,53.51a83.45,83.45,0,0,1-10.32,28.88Z" fill="url(#linear-gradient-65)"></path><path d="M1006.33,392.13c-19-.76-33.69-.46-42,7.83-8.75,8.74.09,18.62-1.81,41.5-2.91,35-25.23,43.6-26.91,79.14a90.73,90.73,0,0,0,3,27.65,95.42,95.42,0,0,0,24.75,21.92c17.23,10.47,27.21,8.65,51.94,15.42,40.46,11.07,44.06,24.25,64.12,20.89,20.27-3.39,38.06-20.45,35.91-29.82-1.29-5.61-9.46-4-18.87-12.58-12.13-11-7.45-21.56-16.67-33.41-13.24-17-31.69-6.62-43-21.37-6.81-8.9-7.94-23-5.71-36.25a71.05,71.05,0,0,1,8.45-24.12c6.28-10.47,9-22.74,14.32-33.72a7.64,7.64,0,0,0,.74-4.28c-.87-7.15-12.79-11-21.82-13.87A108.11,108.11,0,0,0,1006.33,392.13Z" fill="url(#linear-gradient-66)"></path><path d="M990.31,391.35l3.75-1.16s1,5.08,13.05,5.72a18,18,0,0,0,11-3.75l2.56,1.86s-5.62,7-14.57,6.85A17.94,17.94,0,0,1,990.31,391.35Z" fill="url(#linear-gradient-67)"></path><path d="M998,375.89c.72-5.57,5.13-9.15,6.09-9.91,4-3.21,4.85-3.53,6.24-3.79l1.89-.29h.2a19,19,0,0,1,5,1.78c1.93,1.36.51,10.95-5.33,22.88l-.69,3c5.09.9,6.35,1.81,6.39,2.55.09,1.59-5.49,3.61-10.65,3.74-6.48.17-13.35-2.62-13.22-4.7.05-.84,1.27-1.88,6-2.9.73-1,1.47-2.06,2.2-3.1C1001.41,384.39,997.42,380,998,375.89Z" fill="url(#linear-gradient-68)"></path><path d="M1006,373.79c1.47-.87,2.59,1,1.9,2.67s-3,2.68-4.43,1.7S1004,375,1006,373.79Z" fill="url(#linear-gradient-69)"></path><path d="M1196.33,373.77c-19.33-21-64.32-15.23-89.27,1.62-11.59,7.83-17.54,17.08-31.24,17.85-10.42.59-27-3.32-35.71-14.6-1.1-1.43-5.5-7.39-12.1-14.9-2.91-3.32-5.81-6.43-10.29-7.13-1.14-.18-4.93-.8-7.44,1.65-2,2-2.53,5.44-1.93,7.92.36,1.49.82,1.65.76,2.62-.19,2.74-5.17,3.93-4.89,5.3.19,1,2.79.63,3.23,1.86s-2.35,2.52-3.58,5.93c-2.29,1.53-3.74,5.35-4.24,10.46a46.55,46.55,0,0,0,1.44,18.21c6.85,22.13,11.76,38,23.62,46.8,15.7,11.7,29.84.9,69.79-.81,54.71-2.34,68.34,16.2,88,3.51C1207,444.23,1216.41,395.55,1196.33,373.77Z" fill="url(#linear-gradient-70)"></path><path d="M909.41,330.94c-.49,4.58-2.14,24.83,11.83,41.92,13,16,31.53,19.17,35,19.69,16.61,2.51,23.78-4.65,29.59.23,9.85,8.28,4.61,41.84-13.23,50.88-20.1,10.19-49.29-14.29-62.09-31.25-16.8-22.25-16.79-46.67-16.69-51.71a83.36,83.36,0,0,1,6.27-30,14.85,14.85,0,0,1,4.79-.62A14.66,14.66,0,0,1,909.41,330.94Z" fill="url(#linear-gradient-71)"></path><path d="M1080.08,593.09c-4.87-5,.49-15-6.7-22.52-6.67-6.94-14.22-1.33-25-7.3-13.77-7.66-10-21.68-23.13-29.22-9.46-5.42-13.91.41-28.61-2.43s-32.56-13-41.39-31.05A53.31,53.31,0,0,1,950,478.42c-6.6,11.8-13.45,23.1-14.35,42.18a90.73,90.73,0,0,0,3,27.65,95.42,95.42,0,0,0,24.75,21.92c17.23,10.47,27.21,8.65,51.94,15.42,40.46,11.07,44.06,24.25,64.12,20.89,13-2.17,24.87-9.92,31.24-17.68C1092,597.13,1083.61,596.71,1080.08,593.09Z" opacity="0.25" fill="url(#linear-gradient-72)" style="mix-blend-mode:multiply"></path><path d="M805.37,435.88c8.73-8.53-10.18-40.56-20.6-54.6-9.1-12.26-18.45-24.87-31.55-23.27-11.51,1.4-23.72,13.47-25.48,25.05C723,414.21,793,448,805.37,435.88Z" fill="url(#linear-gradient-73)"></path><path d="M679,765c-1.61,1.22-2.17,4.27-2.54,6.26a5.53,5.53,0,0,0-.18,1.66c.51,2.29,4.91,2.53,11.77,3.25,10.84,1.13,14,2,15,.35s-.75-4-.94-4.33c-1-1.5-2.43-2-5.14-3-5-1.71-8.41-2.65-9.44-2.93C681.11,764.54,680,764.22,679,765Z" fill="url(#linear-gradient-74)"></path><path d="M686.45,755l-.09,12.57c-.37.61-4.25,2.43-7.05.87L677.66,756Z" fill="#d8dee8"></path><path d="M766,763.42c-2,2-2.73,5.66-1.35,7.46s3.79.44,10.29.64c7,.21,8.63,1.87,13.5.56,2-.54,5.48-1.83,5.54-3.21,0-1-1.63-1.47-7.2-3.42-7.91-2.75-7.86-2.91-9.57-3.2C772.92,761.53,768.61,760.8,766,763.42Z" fill="url(#linear-gradient-75)"></path><path d="M771.56,752,774,763.69c-.32.63-4.08,2.73-7,1.39l-4.12-11.39Z" fill="#d8dee8"></path><path d="M764.8,494.89a1098.13,1098.13,0,0,0-2.92,132,1061.89,1061.89,0,0,0,12.72,128.5L760.85,759c-10.33-10.65-23-27.42-27.7-51.11-2.89-14.71-.74-22.26-1.75-40.35-1.59-28.79-8.93-43.88-15.78-67.1-6.17-20.87-12.88-51.5-14.16-92.43Z" fill="url(#linear-gradient-76)"></path><path d="M724.81,491.12q-11.23,75.26-21.21,153.27Q696.13,702.94,689.8,760l-13.86,1.7a148.34,148.34,0,0,1-10.76-37.13c-3-19.69-.77-31.38-1-51.79C664,649.86,661,644.88,657.53,616c-7-58.59-10.46-87.89,5.24-106.11C667.86,504,683.49,489.13,724.81,491.12Z" fill="url(#linear-gradient-77)"></path><path d="M670.23,365a221.21,221.21,0,0,1,46.27-7.66c27.52-1.55,41.28-2.33,50.35,4.24,21,15.16.31,50.16,1.25,136.91.14,12.39-.75,24.87-1,37.29-.38,20.57-.13,21.68-1.74,23.77-10.15,13.07-41.52-6.65-91,1.13-27.67,4.36-41,14.4-47.77,7.16-7.91-8.45,1.71-31.18,10-50.74,9.51-22.45,14.1-22.74,19.89-39.65,6.05-17.68,4.27-26.78,6.23-54.66A509.85,509.85,0,0,1,670.23,365Z" fill="url(#linear-gradient-78)"></path><g opacity="0.3" style="mix-blend-mode:multiply"><path d="M721.05,527.9c-12.64-1-21.59,6.25-32,.6-14.34-7.76-16.89-31.87-14.32-48.93C678.6,453.64,694,446.81,693,430.05c-.51-9.07-5.79-21.1-27.69-33.4-1.29,10.35-2.07,19.17-2.56,26.17-2,27.88-.18,37-6.23,54.66-5.79,16.91-10.38,17.2-19.89,39.65-8.29,19.56-17.91,42.29-10,50.74,6.78,7.24,20.1-2.8,47.77-7.16,42.61-6.7,71.79,7,85.54,2.55C746.37,536.44,732.48,528.81,721.05,527.9Z" fill="url(#linear-gradient-79)"></path></g><path d="M687.43,366.81c-8.38-7.53-27.48,1-32.58,3.27-28.46,12.69-56.18,46.91-53.54,83.08.39,5.43,2.2,30.8,22.37,43.1,18.19,11.1,44.45,8.25,66.76-7.46l9.26-7.63L709,472a59.56,59.56,0,0,0-21.2-12.43c-13.42-4.5-24.26,3.58-30.1-2.56-4-4.24-3.33-11.72-1.81-16.26,3.07-9.14,11.32-11.71,18.61-18.2C691.59,407.35,697.46,375.82,687.43,366.81Z" fill="url(#linear-gradient-80)"></path><polygon points="806.93 484.9 685.21 483.06 716.13 498.82 806.49 492.91 806.93 484.9" fill="url(#linear-gradient-81)"></polygon><path d="M680.6,486.32h0a4.86,4.86,0,0,0,3.08,5.13l37.5,15.39,1.18-10.66-37.15-13.13A3.74,3.74,0,0,0,680.6,486.32Z" fill="url(#linear-gradient-82)"></path><path d="M700.06,479.05c-.74-.16,4.49-9,7.84-8S727.19,482,728.34,486l1.15,4.05s-7.41.58-11.83-1S706,480.42,700.06,479.05Z" fill="#fff"></path><path d="M732.69,421.36l-16.06,78.8c-.56,2.72,2.84,6.77,5.56,6.64L849,499a5,5,0,0,0,4.5-3.7l23-76.11c.74-2.77-3.94-5.63-6.73-5.55l-132.45,3.72A5,5,0,0,0,732.69,421.36Z" fill="url(#linear-gradient-83)"></path><path d="M735.35,423.66l-16.06,78.8a4,4,0,0,0,4.13,4.93l128.22-6.07a5,5,0,0,0,4.5-3.69l20.29-76.46a4,4,0,0,0-4-5.2L740,419.69A5,5,0,0,0,735.35,423.66Z" fill="url(#linear-gradient-84)"></path><path d="M804.69,482.85c-10.69-4.76-5.9-13.83-18-25.14-16-14.92-34.26-8.45-39.36-20-1.58-3.61-2-9.21,2.25-18.28l-9.6.27a5,5,0,0,0-4.64,4l-16.06,78.8a4,4,0,0,0,4.13,4.93l128.22-6.07a5,5,0,0,0,4.5-3.69l2.8-10.55a43.9,43.9,0,0,0-13.4-5.25C827.17,478,817,488.33,804.69,482.85Z" opacity="0.3" fill="url(#linear-gradient-85)" style="mix-blend-mode:multiply"></path><path d="M860.73,490.3A.91.91,0,0,0,860,489c-2.68-.14-8.94-.2-12.59,1.93-4.75,2.77-11,7.82-6.39,10.37l4.34,2.39a1,1,0,0,0,.66.09c1.65-.36,8.62-1.88,9.4-2.26S859.43,493.38,860.73,490.3Z" fill="#fff"></path><path d="M721.4,327.25a99.17,99.17,0,0,1-3.5,19.09c-1.46,5.09-2.3,6.4-3.3,7.47-1.51,1.6-3.69,2.95-15.6,5.85-6.47,1.58-7.28,1.54-7.48,2.17-1,3.09,15.28,13.6,33.34,11.07,11.06-1.55,21.58-7.81,21.28-11.11s-11.36-1.53-14-7.53c-1.87-4.17,1.23-10.09,4.69-15C734.41,333.8,723.78,332.72,721.4,327.25Z" fill="#fff"></path><path d="M741.34,330.48c2.9-3.44,3.63-9.45,1-13.26-2.25-3.27-6.22-3.73-8.6-4-6.89-.81-16,2.12-19.63,8.58-2.18,3.83,1,11.79,1.47,13.22.54,1.62,1.75,2.17,2.8,3.39,1.45,1.7,3.73,4.4,7.43,8.91a32.88,32.88,0,0,1,2-4.77,29.65,29.65,0,0,1,3.84-5.59C735.77,332.48,738.59,333.75,741.34,330.48Z" fill="url(#linear-gradient-86)"></path><path d="M720.31,343.5a13.87,13.87,0,0,0,13,7c8.22-.53,11.16-19,6.32-22.9-1.62-1.31-5-1.85-8-1.05-1.72.47-2.36,1.17-5.17,1.89-2.6.66-3.29.38-4.12,1-1,.81-1.92,2.8-.84,8.2-1.4-1.59-3.22-2.2-4.6-1.57a3.19,3.19,0,0,0-1.19,1.06C714.45,339.25,716.1,341.94,720.31,343.5Z" fill="#fff"></path><path d="M722.16,328.35c.36.29-1,1.77-1.27,3.87-.56,4.06,3.06,8.95,7.19,9.36,2.44.25,3.26-1.25,7.38-1.68a18.18,18.18,0,0,1,5.91.34c.86,4.46-.77,8.91-3.92,11-3.4,2.22-7.34.87-9,.31-1.1-.38-4.64-1.58-6.23-4.95s.5-5.62-1.55-8c-1-1.2-2.5-1.72-3.75-4a10.24,10.24,0,0,1-.68-1.56C718.57,330.72,721.63,327.92,722.16,328.35Z" fill="url(#linear-gradient-87)"></path><path d="M738.25,341.9a10.5,10.5,0,0,1-4.89.75c-.14,0-.31,0-.34.11-.09.29,1.74,1.6,3.59,1.09,1.31-.36,2.42-1.58,2.28-1.89C738.83,341.83,738.54,341.84,738.25,341.9Z" fill="#fff"></path></g></g></g></svg>